<svg xmlns="http://www.w3.org/2000/svg" viewBox="0 0 900 720" width="900" height="720" style="display:block;font-family:Arial,sans-serif;overflow:hidden">
<defs>
  <linearGradient id="HG" x1="0" x2="1" y1="0" y2="0">
    <stop offset="0%" stop-color="#034150"/>
    <stop offset="100%" stop-color="#055E73"/>
  </linearGradient>
  <linearGradient id="BG" x1="0" x2="0" y1="0" y2="1">
    <stop offset="0%" stop-color="#F0F8FA"/>
    <stop offset="100%" stop-color="#FAFCFD"/>
  </linearGradient>
</defs>
<style>
  @keyframes fd{from{opacity:0;transform:translateY(6px)}to{opacity:1;transform:translateY(0)}}
  @keyframes fr{0%{stroke-dashoffset:24}100%{stroke-dashoffset:0}}
  @keyframes pu{0%,100%{opacity:1}50%{opacity:0.55}}
  .fi{animation:fd .5s ease-out both}
  .flow{stroke-dasharray:8 4;animation:fr 1.4s linear infinite}
  .pu{animation:pu 2.2s ease-in-out infinite}
</style>
<rect width="900" height="720" fill="url(#BG)"/>
<pattern id="dots" width="20" height="20" patternUnits="userSpaceOnUse"><circle cx="1" cy="1" r="0.65" fill="rgba(8,145,178,0.1)"/></pattern><rect width="900" height="720" fill="url(#dots)"/>
<rect x="0" y="0" width="900" height="58" fill="url(#HG)"/>
<rect x="0" y="56" width="900" height="2" fill="#0891B2" opacity="0.7"/>
<rect x="16" y="13" width="141" height="18" rx="9" fill="rgba(8,145,178,0.25)" stroke="rgba(8,145,178,0.55)" stroke-width="1"/>
<text x="28" y="25" fill="white" font-size="8" font-weight="700" letter-spacing="1.6">CONCEPTUAL LAYERS</text>
<text x="450" y="40" text-anchor="middle" fill="white" font-size="20" font-weight="900" letter-spacing="-0.3">Comparing Major AI Disciplines</text>
<rect x="20" y="70" width="860" height="91" rx="12" fill="#E6F4F7" stroke="#9CD3E0" stroke-width="1.5" class="fi" style="animation-delay:0.00s"/><rect x="20" y="70" width="140" height="91" rx="12" fill="#209CB9"/><rect x="145" y="70" width="15" height="91" fill="#209CB9"/><line x1="160" y1="70" x2="160" y2="161" stroke="#0891B2" stroke-width="3"/><circle cx="90.0" cy="103.5" r="16" fill="white" opacity="0.2"/><text x="90.0" y="107.5" text-anchor="middle" fill="white" font-size="14">⚙️</text><text x="90.0" y="129.5" text-anchor="middle" fill="white" font-size="12" font-weight="800">Artificial</text><text x="90.0" y="143.5" text-anchor="middle" fill="white" font-size="12" font-weight="800">Intelligence</text><g class="fi" style="animation-delay:0.20s"><rect x="190" y="101.5" width="140" height="28" rx="14" fill="white" stroke="#52B2C9" stroke-width="1.5"/><circle cx="204" cy="115.5" r="4" fill="#0891B2"/><text x="216" y="119.5" fill="#04576A" font-size="10" font-weight="600">Neural Network</text><path d="M 170 115.5 C 200 115.5, 170 115.5, 190 115.5" fill="none" stroke="#83C8D8" stroke-width="1"/><rect x="410" y="101.5" width="140" height="28" rx="14" fill="white" stroke="#52B2C9" stroke-width="1.5"/><circle cx="424" cy="115.5" r="4" fill="#0891B2"/><text x="436" y="119.5" fill="#04576A" font-size="10" font-weight="600">Computer Vision</text><path d="M 170 115.5 C 200 115.5, 390 115.5, 410 115.5" fill="none" stroke="#83C8D8" stroke-width="1"/><rect x="630" y="101.5" width="140" height="28" rx="14" fill="white" stroke="#52B2C9" stroke-width="1.5"/><circle cx="644" cy="115.5" r="4" fill="#0891B2"/><text x="656" y="119.5" fill="#04576A" font-size="10" font-weight="600">NLP</text><path d="M 170 115.5 C 200 115.5, 610 115.5, 630 115.5" fill="none" stroke="#83C8D8" stroke-width="1"/></g><rect x="20" y="173" width="860" height="91" rx="12" fill="#E9EFFD" stroke="#A7C0F7" stroke-width="1.5" class="fi" style="animation-delay:0.10s"/><rect x="20" y="173" width="140" height="91" rx="12" fill="#3A72ED"/><rect x="145" y="173" width="15" height="91" fill="#3A72ED"/><line x1="160" y1="173" x2="160" y2="264" stroke="#2563EB" stroke-width="3"/><circle cx="90.0" cy="206.5" r="16" fill="white" opacity="0.2"/><text x="90.0" y="210.5" text-anchor="middle" fill="white" font-size="14">⚙️</text><text x="90.0" y="232.5" text-anchor="middle" fill="white" font-size="12" font-weight="800">Machine</text><text x="90.0" y="246.5" text-anchor="middle" fill="white" font-size="12" font-weight="800">Learning</text><g class="fi" style="animation-delay:0.30s"><rect x="190" y="204.5" width="140" height="28" rx="14" fill="white" stroke="#6691F1" stroke-width="1.5"/><circle cx="204" cy="218.5" r="4" fill="#2563EB"/><text x="216" y="222.5" fill="#163B8D" font-size="10" font-weight="600">Unsupervised</text><path d="M 170 218.5 C 200 218.5, 170 218.5, 190 218.5" fill="none" stroke="#92B1F5" stroke-width="1"/><rect x="410" y="204.5" width="140" height="28" rx="14" fill="white" stroke="#6691F1" stroke-width="1.5"/><circle cx="424" cy="218.5" r="4" fill="#2563EB"/><text x="436" y="222.5" fill="#163B8D" font-size="10" font-weight="600">Supervised</text><path d="M 170 218.5 C 200 218.5, 390 218.5, 410 218.5" fill="none" stroke="#92B1F5" stroke-width="1"/><rect x="630" y="204.5" width="140" height="28" rx="14" fill="white" stroke="#6691F1" stroke-width="1.5"/><circle cx="644" cy="218.5" r="4" fill="#2563EB"/><text x="656" y="222.5" fill="#163B8D" font-size="10" font-weight="600">Reinforcement</text><path d="M 170 218.5 C 200 218.5, 610 218.5, 630 218.5" fill="none" stroke="#92B1F5" stroke-width="1"/></g><rect x="20" y="276" width="860" height="91" rx="12" fill="#FBE9F1" stroke="#F0A8C8" stroke-width="1.5" class="fi" style="animation-delay:0.20s"/><rect x="20" y="276" width="140" height="91" rx="12" fill="#DE3C84"/><rect x="145" y="276" width="15" height="91" fill="#DE3C84"/><line x1="160" y1="276" x2="160" y2="367" stroke="#DB2777" stroke-width="3"/><circle cx="90.0" cy="309.5" r="16" fill="white" opacity="0.2"/><text x="90.0" y="313.5" text-anchor="middle" fill="white" font-size="14">⚙️</text><text x="90.0" y="335.5" text-anchor="middle" fill="white" font-size="12" font-weight="800">Deep</text><text x="90.0" y="349.5" text-anchor="middle" fill="white" font-size="12" font-weight="800">Learning</text><g class="fi" style="animation-delay:0.40s"><line x1="320" y1="321.5" x2="410" y2="321.5" stroke="#DB2777" stroke-width="2" class="flow"/><polygon points="410,321.5 404,317.5 404,325.5" fill="#DB2777" class="pu"/><rect x="190" y="303.5" width="130" height="36" rx="6" fill="white" stroke="#DB2777" stroke-width="1.5"/><text x="255.0" y="325.5" text-anchor="middle" fill="#AF1F5F" font-size="10" font-weight="700">IMAGE</text><line x1="540" y1="321.5" x2="630" y2="321.5" stroke="#DB2777" stroke-width="2" class="flow"/><polygon points="630,321.5 624,317.5 624,325.5" fill="#DB2777" class="pu"/><rect x="410" y="303.5" width="130" height="36" rx="6" fill="white" stroke="#DB2777" stroke-width="1.5"/><text x="475.0" y="325.5" text-anchor="middle" fill="#AF1F5F" font-size="10" font-weight="700">Hidden Layers</text><rect x="630" y="303.5" width="130" height="36" rx="6" fill="white" stroke="#DB2777" stroke-width="1.5"/><text x="695.0" y="325.5" text-anchor="middle" fill="#AF1F5F" font-size="10" font-weight="700">Prediction</text></g><rect x="20" y="379" width="860" height="91" rx="12" fill="#FBF1E6" stroke="#EFC89B" stroke-width="1.5" class="fi" style="animation-delay:0.30s"/><rect x="20" y="379" width="140" height="91" rx="12" fill="#DC841E"/><rect x="145" y="379" width="15" height="91" fill="#DC841E"/><line x1="160" y1="379" x2="160" y2="470" stroke="#D97706" stroke-width="3"/><circle cx="90.0" cy="412.5" r="16" fill="white" opacity="0.2"/><text x="90.0" y="416.5" text-anchor="middle" fill="white" font-size="14">⚙️</text><text x="90.0" y="438.5" text-anchor="middle" fill="white" font-size="12" font-weight="800">Generative</text><text x="90.0" y="452.5" text-anchor="middle" fill="white" font-size="12" font-weight="800">AI</text><g class="fi" style="animation-delay:0.50s"><line x1="320" y1="424.5" x2="410" y2="424.5" stroke="#D97706" stroke-width="2" class="flow"/><polygon points="410,424.5 404,420.5 404,428.5" fill="#D97706" class="pu"/><rect x="190" y="406.5" width="130" height="36" rx="6" fill="white" stroke="#D97706" stroke-width="1.5"/><text x="255.0" y="428.5" text-anchor="middle" fill="#AD5F04" font-size="10" font-weight="700">User</text><line x1="540" y1="424.5" x2="630" y2="424.5" stroke="#D97706" stroke-width="2" class="flow"/><polygon points="630,424.5 624,420.5 624,428.5" fill="#D97706" class="pu"/><rect x="410" y="406.5" width="130" height="36" rx="6" fill="white" stroke="#D97706" stroke-width="1.5"/><text x="475.0" y="428.5" text-anchor="middle" fill="#AD5F04" font-size="10" font-weight="700">LLM + Tools</text><rect x="630" y="406.5" width="130" height="36" rx="6" fill="white" stroke="#D97706" stroke-width="1.5"/><text x="695.0" y="428.5" text-anchor="middle" fill="#AD5F04" font-size="10" font-weight="700">Output</text></g><rect x="20" y="482" width="860" height="91" rx="12" fill="#F1EBFD" stroke="#CAB0F7" stroke-width="1.5" class="fi" style="animation-delay:0.40s"/><rect x="20" y="482" width="140" height="91" rx="12" fill="#894DEE"/><rect x="145" y="482" width="15" height="91" fill="#894DEE"/><line x1="160" y1="482" x2="160" y2="573" stroke="#7C3AED" stroke-width="3"/><circle cx="90.0" cy="515.5" r="16" fill="white" opacity="0.2"/><text x="90.0" y="519.5" text-anchor="middle" fill="white" font-size="14">⚙️</text><text x="90.0" y="541.5" text-anchor="middle" fill="white" font-size="12" font-weight="800">RAG</text><text x="90.0" y="555.5" text-anchor="middle" fill="white" font-size="12" font-weight="800">Systems</text><g class="fi" style="animation-delay:0.60s"><line x1="320" y1="527.5" x2="355" y2="527.5" stroke="#7C3AED" stroke-width="2" class="flow"/><polygon points="355,527.5 349,523.5 349,531.5" fill="#7C3AED" class="pu"/><rect x="190" y="509.5" width="130" height="36" rx="6" fill="white" stroke="#7C3AED" stroke-width="1.5"/><text x="255.0" y="531.5" text-anchor="middle" fill="#632EBD" font-size="10" font-weight="700">User</text><line x1="485" y1="527.5" x2="520" y2="527.5" stroke="#7C3AED" stroke-width="2" class="flow"/><polygon points="520,527.5 514,523.5 514,531.5" fill="#7C3AED" class="pu"/><rect x="355" y="509.5" width="130" height="36" rx="6" fill="white" stroke="#7C3AED" stroke-width="1.5"/><text x="420.0" y="531.5" text-anchor="middle" fill="#632EBD" font-size="10" font-weight="700">Retriever</text><line x1="650" y1="527.5" x2="685" y2="527.5" stroke="#7C3AED" stroke-width="2" class="flow"/><polygon points="685,527.5 679,523.5 679,531.5" fill="#7C3AED" class="pu"/><rect x="520" y="509.5" width="130" height="36" rx="6" fill="white" stroke="#7C3AED" stroke-width="1.5"/><text x="585.0" y="531.5" text-anchor="middle" fill="#632EBD" font-size="10" font-weight="700">Augment</text><rect x="685" y="509.5" width="130" height="36" rx="6" fill="white" stroke="#7C3AED" stroke-width="1.5"/><text x="750.0" y="531.5" text-anchor="middle" fill="#632EBD" font-size="10" font-weight="700">Generator</text></g><rect x="20" y="585" width="860" height="91" rx="12" fill="#E6F4F0" stroke="#9BD5C3" stroke-width="1.5" class="fi" style="animation-delay:0.50s"/><rect x="20" y="585" width="140" height="91" rx="12" fill="#1EA078"/><rect x="145" y="585" width="15" height="91" fill="#1EA078"/><line x1="160" y1="585" x2="160" y2="676" stroke="#059669" stroke-width="3"/><circle cx="90.0" cy="618.5" r="16" fill="white" opacity="0.2"/><text x="90.0" y="622.5" text-anchor="middle" fill="white" font-size="14">⚙️</text><text x="90.0" y="644.5" text-anchor="middle" fill="white" font-size="12" font-weight="800">AI</text><text x="90.0" y="658.5" text-anchor="middle" fill="white" font-size="12" font-weight="800">Agents</text><g class="fi" style="animation-delay:0.70s"><line x1="320" y1="630.5" x2="520" y2="630.5" stroke="#059669" stroke-width="2" class="flow"/><polygon points="520,630.5 514,626.5 514,634.5" fill="#059669" class="pu"/><rect x="190" y="612.5" width="130" height="36" rx="6" fill="white" stroke="#059669" stroke-width="1.5"/><text x="255.0" y="634.5" text-anchor="middle" fill="#047854" font-size="10" font-weight="700">User</text><rect x="520" y="612.5" width="130" height="36" rx="6" fill="white" stroke="#059669" stroke-width="1.5"/><text x="585.0" y="634.5" text-anchor="middle" fill="#047854" font-size="10" font-weight="700">Agent Loop (Brain...</text></g>
<rect x="0" y="690" width="900" height="30" fill="#F2F9FB"/>
<rect x="0" y="689" width="900" height="1" fill="#E2E8F0"/>
<text x="18" y="709" fill="#94A3B8" font-size="8.5">March 2026 · Komal Batra</text>
<rect x="680" y="696" width="208" height="18" rx="9" fill="rgba(8,145,178,0.12)" stroke="#0891B2" stroke-width="1"/>
<text x="784" y="708" text-anchor="middle" fill="#0891B2" font-size="9" font-weight="800" letter-spacing="0.8">AI (c) Komal Batra</text>
</svg>