<svg xmlns="http://www.w3.org/2000/svg" viewBox="0 0 1000 950" width="1000" height="950" style="display:block;font-family:Arial,sans-serif;overflow:hidden">
<defs>
  <linearGradient id="HG" x1="0" x2="1" y1="0" y2="0">
    <stop offset="0%" stop-color="#621135"/>
    <stop offset="100%" stop-color="#8E194D"/>
  </linearGradient>
  <linearGradient id="BG" x1="0" x2="0" y1="0" y2="1">
    <stop offset="0%" stop-color="#FEFAFC"/>
    <stop offset="100%" stop-color="#FEFCFD"/>
  </linearGradient>
</defs>
<style>
  @keyframes fd{from{opacity:0;transform:translateY(6px)}to{opacity:1;transform:translateY(0)}}
  @keyframes fr{0%{stroke-dashoffset:24}100%{stroke-dashoffset:0}}
  @keyframes pu{0%,100%{opacity:1}50%{opacity:0.55}}
  .fi{animation:fd .5s ease-out both}
  .flow{stroke-dasharray:8 4;animation:fr 1.4s linear infinite}
  .pu{animation:pu 2.2s ease-in-out infinite}
</style>
<rect width="1000" height="950" fill="url(#BG)"/>
<pattern id="dots" width="20" height="20" patternUnits="userSpaceOnUse"><circle cx="1" cy="1" r="0.65" fill="rgba(219,39,119,0.1)"/></pattern><rect width="1000" height="950" fill="url(#dots)"/>
<rect x="0" y="0" width="1000" height="58" fill="url(#HG)"/>
<rect x="0" y="56" width="1000" height="2" fill="#DB2777" opacity="0.7"/>
<rect x="16" y="13" width="197" height="18" rx="9" fill="rgba(219,39,119,0.25)" stroke="rgba(219,39,119,0.55)" stroke-width="1"/>
<text x="28" y="25" fill="white" font-size="8" font-weight="700" letter-spacing="1.6">SKILLS &amp; TECHNOLOGIES MAP</text>
<text x="500" y="40" text-anchor="middle" fill="white" font-size="20" font-weight="900" letter-spacing="-0.3">AI Skills &amp; Technologies Map</text>
<polygon points="543.3012701892219,370.0 500.0,395.0 456.69872981077805,370.0 456.69872981077805,320.0 500.0,295.0 543.3012701892219,320.0" fill="#AF1F5F" stroke="#831747" stroke-width="4" class="pu" style="animation-delay:0.00s"/><text x="500.0" y="350.0" text-anchor="middle" fill="white" font-size="12" font-weight="700">AI Agents</text><polygon points="463.30127018922195,425.0 420.0,450.0 376.69872981077805,425.0 376.69872981077805,375.0 420.0,350.0 463.3012701892219,375.0" fill="#1D4FBC" stroke="#163B8D" stroke-width="4" class="pu" style="animation-delay:0.10s"/><text x="420.0" y="405.0" text-anchor="middle" fill="white" font-size="12" font-weight="700">Agentic AI</text><polygon points="623.3012701892219,425.0 580.0,450.0 536.6987298107781,425.0 536.6987298107781,375.0 580.0,350.0 623.3012701892219,375.0" fill="#632EBD" stroke="#4A228E" stroke-width="4" class="pu" style="animation-delay:0.20s"/><text x="580.0" y="405.0" text-anchor="middle" fill="white" font-size="12" font-weight="700">Generative AI</text><polygon points="383.30127018922195,480.0 340.0,505.0 296.69872981077805,480.0 296.69872981077805,430.0 340.0,405.0 383.3012701892219,430.0" fill="#06748E" stroke="#04576A" stroke-width="4" class="pu" style="animation-delay:0.30s"/><text x="340.0" y="460.0" text-anchor="middle" fill="white" font-size="12" font-weight="700">Deep Learning</text><polygon points="543.3012701892219,480.0 500.0,505.0 456.69872981077805,480.0 456.69872981077805,430.0 500.0,405.0 543.3012701892219,430.0" fill="#AD5F04" stroke="#824703" stroke-width="4" class="pu" style="animation-delay:0.40s"/><text x="500.0" y="453.0" text-anchor="middle" fill="white" font-size="11" font-weight="700">Machine</text><text x="500.0" y="467.0" text-anchor="middle" fill="white" font-size="11" font-weight="700">Learning</text><polygon points="703.3012701892219,480.0 660.0,505.0 616.6987298107781,480.0 616.6987298107781,430.0 660.0,405.0 703.3012701892219,430.0" fill="#047854" stroke="#035A3F" stroke-width="4" class="pu" style="animation-delay:0.50s"/><text x="660.0" y="460.0" text-anchor="middle" fill="white" font-size="12" font-weight="700">NLP</text><polygon points="463.30127018922195,535.0 420.0,560.0 376.69872981077805,535.0 376.69872981077805,485.0 420.0,460.0 463.3012701892219,485.0" fill="#AF1F5F" stroke="#831747" stroke-width="4" class="pu" style="animation-delay:0.60s"/><text x="420.0" y="508.0" text-anchor="middle" fill="white" font-size="11" font-weight="700">AI Ethics &amp;</text><text x="420.0" y="522.0" text-anchor="middle" fill="white" font-size="11" font-weight="700">Governance</text><polygon points="623.3012701892219,535.0 580.0,560.0 536.6987298107781,535.0 536.6987298107781,485.0 580.0,460.0 623.3012701892219,485.0" fill="#1D4FBC" stroke="#163B8D" stroke-width="4" class="pu" style="animation-delay:0.70s"/><text x="580.0" y="508.0" text-anchor="middle" fill="white" font-size="11" font-weight="700">Computer</text><text x="580.0" y="522.0" text-anchor="middle" fill="white" font-size="11" font-weight="700">Vision</text><polygon points="703.3012701892219,370.0 660.0,395.0 616.6987298107781,370.0 616.6987298107781,320.0 660.0,295.0 703.3012701892219,320.0" fill="#632EBD" stroke="#4A228E" stroke-width="4" class="pu" style="animation-delay:0.80s"/><text x="660.0" y="343.0" text-anchor="middle" fill="white" font-size="11" font-weight="700">Robotics &amp;</text><text x="660.0" y="357.0" text-anchor="middle" fill="white" font-size="11" font-weight="700">Auto Sys</text><path d="M 220.0 235.0 L 500.0 455.0" stroke="#DB2777" stroke-width="2" stroke-dasharray="8 4" fill="none" class="flow" opacity="0.4"/><rect x="100.0" y="175.0" width="240" height="160" rx="8" fill="white" stroke="#ED93BB" stroke-width="2" class="box-sd"/><text x="110.0" y="195.0" font-size="14" font-weight="800" fill="#991B53">AI Agents</text><text x="110.0" y="220.0" font-size="11" font-weight="700" fill="gray">Skills:</text><circle cx="115.0" cy="235.0" r="2" fill="black"/><text x="122.0" y="238.0" font-size="10" fill="black">Multi-agent systems</text><circle cx="115.0" cy="250.0" r="2" fill="black"/><text x="122.0" y="253.0" font-size="10" fill="black">Prompt engineering</text><text x="220.0" y="220.0" font-size="11" font-weight="700" fill="gray">Technologies:</text><circle cx="225.0" cy="235.0" r="2" fill="black"/><text x="232.0" y="238.0" font-size="10" fill="black">LangChain</text><circle cx="225.0" cy="250.0" r="2" fill="black"/><text x="232.0" y="253.0" font-size="10" fill="black">AutoGen</text><path d="M 470.0 235.0 L 500.0 455.0" stroke="#DB2777" stroke-width="2" stroke-dasharray="8 4" fill="none" class="flow" opacity="0.4"/><rect x="350.0" y="175.0" width="240" height="160" rx="8" fill="white" stroke="#ED93BB" stroke-width="2" class="box-sd"/><text x="360.0" y="195.0" font-size="14" font-weight="800" fill="#991B53">Agentic AI</text><text x="360.0" y="220.0" font-size="11" font-weight="700" fill="gray">Skills:</text><circle cx="365.0" cy="235.0" r="2" fill="black"/><text x="372.0" y="238.0" font-size="10" fill="black">Reasoning algorithms</text><circle cx="365.0" cy="250.0" r="2" fill="black"/><text x="372.0" y="253.0" font-size="10" fill="black">Task orchestration</text><text x="470.0" y="220.0" font-size="11" font-weight="700" fill="gray">Technologies:</text><circle cx="475.0" cy="235.0" r="2" fill="black"/><text x="482.0" y="238.0" font-size="10" fill="black">AutoGPT</text><circle cx="475.0" cy="250.0" r="2" fill="black"/><text x="482.0" y="253.0" font-size="10" fill="black">BabyAGI</text><path d="M 720.0 235.0 L 500.0 455.0" stroke="#DB2777" stroke-width="2" stroke-dasharray="8 4" fill="none" class="flow" opacity="0.4"/><rect x="600.0" y="175.0" width="240" height="160" rx="8" fill="white" stroke="#ED93BB" stroke-width="2" class="box-sd"/><text x="610.0" y="195.0" font-size="14" font-weight="800" fill="#991B53">Generative AI</text><text x="610.0" y="220.0" font-size="11" font-weight="700" fill="gray">Skills:</text><circle cx="615.0" cy="235.0" r="2" fill="black"/><text x="622.0" y="238.0" font-size="10" fill="black">Prompt chaining</text><circle cx="615.0" cy="250.0" r="2" fill="black"/><text x="622.0" y="253.0" font-size="10" fill="black">Multimodal models</text><text x="720.0" y="220.0" font-size="11" font-weight="700" fill="gray">Technologies:</text><circle cx="725.0" cy="235.0" r="2" fill="black"/><text x="732.0" y="238.0" font-size="10" fill="black">GPT / Claude</text><circle cx="725.0" cy="250.0" r="2" fill="black"/><text x="732.0" y="253.0" font-size="10" fill="black">MidJourney</text><path d="M 170.0 495.0 L 500.0 455.0" stroke="#DB2777" stroke-width="2" stroke-dasharray="8 4" fill="none" class="flow" opacity="0.4"/><rect x="50.0" y="435.0" width="240" height="160" rx="8" fill="white" stroke="#ED93BB" stroke-width="2" class="box-sd"/><text x="60.0" y="455.0" font-size="14" font-weight="800" fill="#991B53">Deep Learning</text><text x="60.0" y="480.0" font-size="11" font-weight="700" fill="gray">Skills:</text><circle cx="65.0" cy="495.0" r="2" fill="black"/><text x="72.0" y="498.0" font-size="10" fill="black">Neural net architecture</text><circle cx="65.0" cy="510.0" r="2" fill="black"/><text x="72.0" y="513.0" font-size="10" fill="black">GPU optimization</text><text x="170.0" y="480.0" font-size="11" font-weight="700" fill="gray">Technologies:</text><circle cx="175.0" cy="495.0" r="2" fill="black"/><text x="182.0" y="498.0" font-size="10" fill="black">PyTorch</text><circle cx="175.0" cy="510.0" r="2" fill="black"/><text x="182.0" y="513.0" font-size="10" fill="black">TensorFlow</text><path d="M 170.0 695.0 L 500.0 455.0" stroke="#DB2777" stroke-width="2" stroke-dasharray="8 4" fill="none" class="flow" opacity="0.4"/><rect x="50.0" y="635.0" width="240" height="160" rx="8" fill="white" stroke="#ED93BB" stroke-width="2" class="box-sd"/><text x="60.0" y="655.0" font-size="14" font-weight="800" fill="#991B53">Machine Learning</text><text x="60.0" y="680.0" font-size="11" font-weight="700" fill="gray">Skills:</text><circle cx="65.0" cy="695.0" r="2" fill="black"/><text x="72.0" y="698.0" font-size="10" fill="black">Data preprocessing</text><circle cx="65.0" cy="710.0" r="2" fill="black"/><text x="72.0" y="713.0" font-size="10" fill="black">Hyperparameter tuning</text><text x="170.0" y="680.0" font-size="11" font-weight="700" fill="gray">Technologies:</text><circle cx="175.0" cy="695.0" r="2" fill="black"/><text x="182.0" y="698.0" font-size="10" fill="black">Scikit-learn</text><circle cx="175.0" cy="710.0" r="2" fill="black"/><text x="182.0" y="713.0" font-size="10" fill="black">XGBoost</text><path d="M 470.0 795.0 L 500.0 455.0" stroke="#DB2777" stroke-width="2" stroke-dasharray="8 4" fill="none" class="flow" opacity="0.4"/><rect x="350.0" y="735.0" width="240" height="160" rx="8" fill="white" stroke="#ED93BB" stroke-width="2" class="box-sd"/><text x="360.0" y="755.0" font-size="14" font-weight="800" fill="#991B53">AI Ethics</text><text x="360.0" y="780.0" font-size="11" font-weight="700" fill="gray">Skills:</text><circle cx="365.0" cy="795.0" r="2" fill="black"/><text x="372.0" y="798.0" font-size="10" fill="black">Bias mitigation</text><circle cx="365.0" cy="810.0" r="2" fill="black"/><text x="372.0" y="813.0" font-size="10" fill="black">XAI design</text><text x="470.0" y="780.0" font-size="11" font-weight="700" fill="gray">Technologies:</text><circle cx="475.0" cy="795.0" r="2" fill="black"/><text x="482.0" y="798.0" font-size="10" fill="black">AI Fairness 360</text><circle cx="475.0" cy="810.0" r="2" fill="black"/><text x="482.0" y="813.0" font-size="10" fill="black">SHAP</text><path d="M 720.0 795.0 L 500.0 455.0" stroke="#DB2777" stroke-width="2" stroke-dasharray="8 4" fill="none" class="flow" opacity="0.4"/><rect x="600.0" y="735.0" width="240" height="160" rx="8" fill="white" stroke="#ED93BB" stroke-width="2" class="box-sd"/><text x="610.0" y="755.0" font-size="14" font-weight="800" fill="#991B53">Computer Vision</text><text x="610.0" y="780.0" font-size="11" font-weight="700" fill="gray">Skills:</text><circle cx="615.0" cy="795.0" r="2" fill="black"/><text x="622.0" y="798.0" font-size="10" fill="black">Image preprocessing</text><circle cx="615.0" cy="810.0" r="2" fill="black"/><text x="622.0" y="813.0" font-size="10" fill="black">Object detection</text><text x="720.0" y="780.0" font-size="11" font-weight="700" fill="gray">Technologies:</text><circle cx="725.0" cy="795.0" r="2" fill="black"/><text x="732.0" y="798.0" font-size="10" fill="black">OpenCV</text><circle cx="725.0" cy="810.0" r="2" fill="black"/><text x="732.0" y="813.0" font-size="10" fill="black">YOLOv8</text><path d="M 970.0 595.0 L 500.0 455.0" stroke="#DB2777" stroke-width="2" stroke-dasharray="8 4" fill="none" class="flow" opacity="0.4"/><rect x="850.0" y="535.0" width="240" height="160" rx="8" fill="white" stroke="#ED93BB" stroke-width="2" class="box-sd"/><text x="860.0" y="555.0" font-size="14" font-weight="800" fill="#991B53">NLP</text><text x="860.0" y="580.0" font-size="11" font-weight="700" fill="gray">Skills:</text><circle cx="865.0" cy="595.0" r="2" fill="black"/><text x="872.0" y="598.0" font-size="10" fill="black">Text embedding</text><circle cx="865.0" cy="610.0" r="2" fill="black"/><text x="872.0" y="613.0" font-size="10" fill="black">Semantic search</text><text x="970.0" y="580.0" font-size="11" font-weight="700" fill="gray">Technologies:</text><circle cx="975.0" cy="595.0" r="2" fill="black"/><text x="982.0" y="598.0" font-size="10" fill="black">Hugging Face</text><circle cx="975.0" cy="610.0" r="2" fill="black"/><text x="982.0" y="613.0" font-size="10" fill="black">Pinecone</text>
<rect x="0" y="920" width="1000" height="30" fill="#FDF4F8"/>
<rect x="0" y="919" width="1000" height="1" fill="#E2E8F0"/>
<text x="18" y="939" fill="#94A3B8" font-size="8.5">March 2026 · Komal Batra</text>
<rect x="780" y="926" width="208" height="18" rx="9" fill="rgba(219,39,119,0.12)" stroke="#DB2777" stroke-width="1"/>
<text x="884" y="938" text-anchor="middle" fill="#DB2777" font-size="9" font-weight="800" letter-spacing="0.8">AI (c) Komal Batra</text>
</svg>