<svg xmlns="http://www.w3.org/2000/svg" viewBox="0 0 900 600" width="900" height="600" style="display:block;font-family:Arial,sans-serif;overflow:hidden">
<defs>
  <linearGradient id="HG" x1="0" x2="1" y1="0" y2="0">
    <stop offset="0%" stop-color="#034150"/>
    <stop offset="100%" stop-color="#055E73"/>
  </linearGradient>
  <linearGradient id="BG" x1="0" x2="0" y1="0" y2="1">
    <stop offset="0%" stop-color="#022831"/>
    <stop offset="100%" stop-color="#033A47"/>
  </linearGradient>
</defs>
<style>
  @keyframes fd{from{opacity:0;transform:translateY(6px)}to{opacity:1;transform:translateY(0)}}
  @keyframes fr{0%{stroke-dashoffset:24}100%{stroke-dashoffset:0}}
  @keyframes pu{0%,100%{opacity:1}50%{opacity:0.55}}
  .fi{animation:fd .5s ease-out both}
  .flow{stroke-dasharray:8 4;animation:fr 1.4s linear infinite}
  .pu{animation:pu 2.2s ease-in-out infinite}
</style>
<rect width="900" height="600" fill="url(#BG)"/>
<pattern id="grid" width="26" height="26" patternUnits="userSpaceOnUse"><path d="M26 0 L0 0 0 26" fill="none" stroke="rgba(8,145,178,0.06)" stroke-width="0.5"/></pattern><rect width="900" height="600" fill="url(#grid)"/>
<rect x="0" y="0" width="900" height="58" fill="url(#HG)"/>
<rect x="0" y="56" width="900" height="2" fill="#0891B2" opacity="0.7"/>
<rect x="16" y="13" width="99" height="18" rx="9" fill="rgba(8,145,178,0.25)" stroke="rgba(8,145,178,0.55)" stroke-width="1"/>
<text x="28" y="25" fill="white" font-size="8" font-weight="700" letter-spacing="1.6">CONCEPT MAP</text>
<text x="450" y="40" text-anchor="middle" fill="white" font-size="20" font-weight="900" letter-spacing="-0.3">AI Skills &amp; Technologies Map</text>
<circle cx="450" cy="310" r="74" fill="rgba(8,145,178,0.15)" class="pu"/><circle cx="450" cy="310" r="68" fill="#044F61"/><circle cx="450" cy="310" r="64" fill="#034150" stroke="#6ABDD0" stroke-width="1.5"/><text x="450" y="304" text-anchor="middle" fill="white" font-size="13" font-weight="900">AI Skills</text><text x="450" y="322" text-anchor="middle" fill="#9CD3E0" font-size="12" font-weight="700">and Technolog...</text><path d="M450.0,242.0 Q450.0,212.5 450.0,115.0" fill="none" stroke="#0891B2" stroke-width="2.5" stroke-dasharray="6 3" class="flow" style="animation-delay:0.00s"/><circle cx="450.0" cy="115.0" r="49" fill="rgba(8,145,178,0.12)"/><circle cx="450.0" cy="115.0" r="46" fill="#044859" stroke="#0891B2" stroke-width="2" class="fi" style="animation-delay:0.00s"/><text x="450.0" y="108.0" text-anchor="middle" fill="white" font-size="10" font-weight="800">Ingest</text><text x="450.0" y="123.0" text-anchor="middle" fill="#8FCDDC" font-size="8">Data collection...</text><line x1="450.0" y1="69.0" x2="450.0" y2="2.0" stroke="rgba(8,145,178,0.5)" stroke-width="1.5" stroke-dasharray="4 3"/><rect x="395.0" y="-12.0" width="110" height="28" rx="14" fill="#034150" stroke="#52B2C9" stroke-width="1" class="fi" style="animation-delay:0.20s"/><text x="450.0" y="6.0" text-anchor="middle" fill="#A8D8E4" font-size="8.5" font-weight="700">APIs + streams</text><path d="M514.7,289.0 Q542.7,279.9 635.5,249.7" fill="none" stroke="#DB2777" stroke-width="2.5" stroke-dasharray="6 3" class="flow" style="animation-delay:0.15s"/><circle cx="635.5" cy="249.7" r="49" fill="rgba(219,39,119,0.12)"/><circle cx="635.5" cy="249.7" r="46" fill="#6D133B" stroke="#DB2777" stroke-width="2" class="fi" style="animation-delay:0.10s"/><text x="635.5" y="242.7" text-anchor="middle" fill="white" font-size="10" font-weight="800">Process</text><text x="635.5" y="257.7" text-anchor="middle" fill="#EE9DC1" font-size="8">Transform and e...</text><line x1="679.2" y1="235.5" x2="742.9" y2="214.8" stroke="rgba(219,39,119,0.5)" stroke-width="1.5" stroke-dasharray="4 3"/><rect x="687.9" y="200.8" width="110" height="28" rx="14" fill="#621135" stroke="#E5679F" stroke-width="1" class="fi" style="animation-delay:0.30s"/><text x="742.9" y="218.8" text-anchor="middle" fill="#F2B3CF" font-size="8.5" font-weight="700">Spark + dbt</text><path d="M490.0,365.0 Q507.3,388.9 564.6,467.8" fill="none" stroke="#D97706" stroke-width="2.5" stroke-dasharray="6 3" class="flow" style="animation-delay:0.30s"/><circle cx="564.6" cy="467.8" r="49" fill="rgba(217,119,6,0.12)"/><circle cx="564.6" cy="467.8" r="46" fill="#6C3B03" stroke="#D97706" stroke-width="2" class="fi" style="animation-delay:0.20s"/><text x="564.6" y="460.8" text-anchor="middle" fill="white" font-size="10" font-weight="800">Store</text><text x="564.6" y="475.8" text-anchor="middle" fill="#EDC18E" font-size="8">Persist and ind...</text><line x1="591.7" y1="505.0" x2="631.0" y2="559.2" stroke="rgba(217,119,6,0.5)" stroke-width="1.5" stroke-dasharray="4 3"/><rect x="576.0" y="545.2" width="110" height="28" rx="14" fill="#613502" stroke="#E49F50" stroke-width="1" class="fi" style="animation-delay:0.40s"/><text x="631.0" y="563.2" text-anchor="middle" fill="#F1CFA7" font-size="8.5" font-weight="700">PostgreSQL + S3</text><path d="M410.0,365.0 Q392.7,388.9 335.4,467.8" fill="none" stroke="#2563EB" stroke-width="2.5" stroke-dasharray="6 3" class="flow" style="animation-delay:0.45s"/><circle cx="335.4" cy="467.8" r="49" fill="rgba(37,99,235,0.12)"/><circle cx="335.4" cy="467.8" r="46" fill="#123175" stroke="#2563EB" stroke-width="2" class="fi" style="animation-delay:0.30s"/><text x="335.4" y="460.8" text-anchor="middle" fill="white" font-size="10" font-weight="800">Serve</text><text x="335.4" y="475.8" text-anchor="middle" fill="#9CB8F6" font-size="8">APIs and dashbo...</text><line x1="308.3" y1="505.0" x2="269.0" y2="559.2" stroke="rgba(37,99,235,0.5)" stroke-width="1.5" stroke-dasharray="4 3"/><rect x="214.0" y="545.2" width="110" height="28" rx="14" fill="#102C69" stroke="#6691F1" stroke-width="1" class="fi" style="animation-delay:0.50s"/><text x="269.0" y="563.2" text-anchor="middle" fill="#B2C8F8" font-size="8.5" font-weight="700">REST + Grafana</text><path d="M385.3,289.0 Q357.3,279.9 264.5,249.7" fill="none" stroke="#059669" stroke-width="2.5" stroke-dasharray="6 3" class="flow" style="animation-delay:0.60s"/><circle cx="264.5" cy="249.7" r="49" fill="rgba(5,150,105,0.12)"/><circle cx="264.5" cy="249.7" r="46" fill="#024B34" stroke="#059669" stroke-width="2" class="fi" style="animation-delay:0.40s"/><text x="264.5" y="242.7" text-anchor="middle" fill="white" font-size="10" font-weight="800">Govern</text><text x="264.5" y="257.7" text-anchor="middle" fill="#8ECFBB" font-size="8">Quality and lin...</text><line x1="220.8" y1="235.5" x2="157.1" y2="214.8" stroke="rgba(5,150,105,0.5)" stroke-width="1.5" stroke-dasharray="4 3"/><rect x="102.1" y="200.8" width="110" height="28" rx="14" fill="#02432F" stroke="#50B596" stroke-width="1" class="fi" style="animation-delay:0.60s"/><text x="157.1" y="218.8" text-anchor="middle" fill="#A7DACA" font-size="8.5" font-weight="700">Catalog + polic...</text>
<rect x="0" y="570" width="900" height="30" fill="#0D1117"/>
<rect x="0" y="569" width="900" height="1" fill="rgba(8,145,178,0.35)"/>
<text x="18" y="589" fill="#94A3B8" font-size="8.5">March 2026 · Komal Batra</text>
<rect x="680" y="576" width="208" height="18" rx="9" fill="rgba(8,145,178,0.12)" stroke="#0891B2" stroke-width="1"/>
<text x="784" y="588" text-anchor="middle" fill="#0891B2" font-size="9" font-weight="800" letter-spacing="0.8">AI (c) Komal Batra</text>
</svg>