<svg xmlns="http://www.w3.org/2000/svg" viewBox="0 0 1000 1100" width="1000" height="1100" style="display:block;font-family:Arial,sans-serif;overflow:hidden">
<defs>
  <linearGradient id="HG" x1="0" x2="1" y1="0" y2="0">
    <stop offset="0%" stop-color="#034150"/>
    <stop offset="100%" stop-color="#055E73"/>
  </linearGradient>
  <linearGradient id="BG" x1="0" x2="0" y1="0" y2="1">
    <stop offset="0%" stop-color="#F0F8FA"/>
    <stop offset="100%" stop-color="#F7FBFC"/>
  </linearGradient>
</defs>
<style>
  @keyframes fd{from{opacity:0;transform:translateY(6px)}to{opacity:1;transform:translateY(0)}}
  @keyframes fr{0%{stroke-dashoffset:24}100%{stroke-dashoffset:0}}
  @keyframes pu{0%,100%{opacity:1}50%{opacity:0.55}}
  .fi{animation:fd .5s ease-out both}
  .flow{stroke-dasharray:8 4;animation:fr 1.4s linear infinite}
  .pu{animation:pu 2.2s ease-in-out infinite}
</style>
<rect width="1000" height="1100" fill="url(#BG)"/>
<pattern id="dots" width="20" height="20" patternUnits="userSpaceOnUse"><circle cx="1" cy="1" r="0.65" fill="rgba(8,145,178,0.1)"/></pattern><rect width="1000" height="1100" fill="url(#dots)"/>
<rect x="0" y="0" width="1000" height="58" fill="url(#HG)"/>
<rect x="0" y="56" width="1000" height="2" fill="#0891B2" opacity="0.7"/>
<rect x="16" y="13" width="211" height="18" rx="9" fill="rgba(8,145,178,0.25)" stroke="rgba(8,145,178,0.55)" stroke-width="1"/>
<text x="28" y="25" fill="white" font-size="8" font-weight="700" letter-spacing="1.6">STEP-BY-STEP LEARNING GUIDE</text>
<text x="500" y="40" text-anchor="middle" fill="white" font-size="20" font-weight="900" letter-spacing="-0.3">Generative AI Learning Roadmap</text>
<path d="M 500.0 80 C 650.0 135.0, 650.0 135.0, 500.0 190 C 350.0 245.0, 350.0 245.0, 500.0 300 C 650.0 355.0, 650.0 355.0, 500.0 410 C 350.0 465.0, 350.0 465.0, 500.0 520 C 650.0 575.0, 650.0 575.0, 500.0 630 C 350.0 685.0, 350.0 685.0, 500.0 740 C 650.0 795.0, 650.0 795.0, 500.0 850 " fill="none" class="flow" stroke="#CDE9EF" stroke-width="40" stroke-linecap="round"/><path d="M 500.0 80 C 650.0 135.0, 650.0 135.0, 500.0 190 C 350.0 245.0, 350.0 245.0, 500.0 300 C 650.0 355.0, 650.0 355.0, 500.0 410 C 350.0 465.0, 350.0 465.0, 500.0 520 C 650.0 575.0, 650.0 575.0, 500.0 630 C 350.0 685.0, 350.0 685.0, 500.0 740 C 650.0 795.0, 650.0 795.0, 500.0 850 " fill="none" class="flow" stroke="#0891B2" stroke-width="6" stroke-dasharray="12 12" stroke-linecap="round"/><circle cx="500.0" cy="80" r="25" fill="#0891B2" stroke="white" stroke-width="4" class="pu" style="animation-delay:0.00s"/><text x="500.0" y="88" text-anchor="middle" fill="white" font-size="20" font-weight="900">1</text><path d="M 525.0 80 L 560.0 80" stroke="#0891B2" stroke-width="3" fill="none" opacity="0.5"/><rect x="560.0" y="35.0" width="320" height="90" rx="12" fill="white" stroke="#0891B2" stroke-width="2" class="box-sd" style="animation-delay:0.10s"/><path d="M 560.0 47.0 Q 560.0 35.0 572.0 35.0 L 868.0 35.0 Q 880.0 35.0 880.0 47.0 L 880.0 65.0 L 560.0 65.0 Z" fill="#D9EEF3"/><text x="575.0" y="55.0" font-size="14" font-weight="900" fill="#04576A">1. Start with the Basics</text><text x="575.0" y="80.0" font-size="11" font-weight="700" fill="#0782A0">AI -&gt; ML -&gt; DL -&gt; GenAI</text><circle cx="580.0" cy="97.0" r="3" fill="#0891B2"/><text x="590.0" y="101.0" font-size="11" fill="#444">Learn how models generate data</text><circle cx="580.0" cy="113.0" r="3" fill="#0891B2"/><text x="590.0" y="117.0" font-size="11" fill="#444">Clarity saves months later</text><circle cx="500.0" cy="190" r="25" fill="#2563EB" stroke="white" stroke-width="4" class="pu" style="animation-delay:0.10s"/><text x="500.0" y="198" text-anchor="middle" fill="white" font-size="20" font-weight="900">2</text><path d="M 475.0 190 L 440.0 190" stroke="#2563EB" stroke-width="3" fill="none" opacity="0.5"/><rect x="120.0" y="145.0" width="320" height="90" rx="12" fill="white" stroke="#2563EB" stroke-width="2" class="box-sd" style="animation-delay:0.20s"/><path d="M 120.0 157.0 Q 120.0 145.0 132.0 145.0 L 428.0 145.0 Q 440.0 145.0 440.0 157.0 L 440.0 175.0 L 120.0 175.0 Z" fill="#DEE7FC"/><text x="135.0" y="165.0" font-size="14" font-weight="900" fill="#163B8D">2. Master Core Concepts</text><text x="135.0" y="190.0" font-size="11" font-weight="700" fill="#2159D3">Math Foundations</text><circle cx="140.0" cy="207.0" r="3" fill="#2563EB"/><text x="150.0" y="211.0" font-size="11" fill="#444">Probability &amp; Stats</text><circle cx="140.0" cy="223.0" r="3" fill="#2563EB"/><text x="150.0" y="227.0" font-size="11" fill="#444">Linear Algebra</text><circle cx="140.0" cy="239.0" r="3" fill="#2563EB"/><text x="150.0" y="243.0" font-size="11" fill="#444">Calculus basics</text><circle cx="500.0" cy="300" r="25" fill="#7C3AED" stroke="white" stroke-width="4" class="pu" style="animation-delay:0.20s"/><text x="500.0" y="308" text-anchor="middle" fill="white" font-size="20" font-weight="900">3</text><path d="M 525.0 300 L 560.0 300" stroke="#7C3AED" stroke-width="3" fill="none" opacity="0.5"/><rect x="560.0" y="255.0" width="320" height="90" rx="12" fill="white" stroke="#7C3AED" stroke-width="2" class="box-sd" style="animation-delay:0.30s"/><path d="M 560.0 267.0 Q 560.0 255.0 572.0 255.0 L 868.0 255.0 Q 880.0 255.0 880.0 267.0 L 880.0 285.0 L 560.0 285.0 Z" fill="#EBE1FC"/><text x="575.0" y="275.0" font-size="14" font-weight="900" fill="#4A228E">3. Foundation Models</text><text x="575.0" y="300.0" font-size="11" font-weight="700" fill="#6F34D5">Get Hands-on</text><circle cx="580.0" cy="317.0" r="3" fill="#7C3AED"/><text x="590.0" y="321.0" font-size="11" fill="#444">GPT, Llama, Gemini, Claude</text><circle cx="580.0" cy="333.0" r="3" fill="#7C3AED"/><text x="590.0" y="337.0" font-size="11" fill="#444">Understand training &amp; usage</text><circle cx="500.0" cy="410" r="25" fill="#D97706" stroke="white" stroke-width="4" class="pu" style="animation-delay:0.30s"/><text x="500.0" y="418" text-anchor="middle" fill="white" font-size="20" font-weight="900">4</text><path d="M 475.0 410 L 440.0 410" stroke="#D97706" stroke-width="3" fill="none" opacity="0.5"/><rect x="120.0" y="365.0" width="320" height="90" rx="12" fill="white" stroke="#D97706" stroke-width="2" class="box-sd" style="animation-delay:0.40s"/><path d="M 120.0 377.0 Q 120.0 365.0 132.0 365.0 L 428.0 365.0 Q 440.0 365.0 440.0 377.0 L 440.0 395.0 L 120.0 395.0 Z" fill="#F9EAD9"/><text x="135.0" y="385.0" font-size="14" font-weight="900" fill="#824703">4. GenAI Dev Stack</text><text x="135.0" y="410.0" font-size="11" font-weight="700" fill="#C36B05">Practical Tools</text><circle cx="140.0" cy="427.0" r="3" fill="#D97706"/><text x="150.0" y="431.0" font-size="11" fill="#444">Python, LangChain</text><circle cx="140.0" cy="443.0" r="3" fill="#D97706"/><text x="150.0" y="447.0" font-size="11" fill="#444">Vector DBs, Hugging Face</text><circle cx="500.0" cy="520" r="25" fill="#059669" stroke="white" stroke-width="4" class="pu" style="animation-delay:0.40s"/><text x="500.0" y="528" text-anchor="middle" fill="white" font-size="20" font-weight="900">5</text><path d="M 525.0 520 L 560.0 520" stroke="#059669" stroke-width="3" fill="none" opacity="0.5"/><rect x="560.0" y="475.0" width="320" height="90" rx="12" fill="white" stroke="#059669" stroke-width="2" class="box-sd" style="animation-delay:0.50s"/><path d="M 560.0 487.0 Q 560.0 475.0 572.0 475.0 L 868.0 475.0 Q 880.0 475.0 880.0 487.0 L 880.0 505.0 L 560.0 505.0 Z" fill="#D9EFE8"/><text x="575.0" y="495.0" font-size="14" font-weight="900" fill="#035A3F">5. Model Training</text><text x="575.0" y="520.0" font-size="11" font-weight="700" fill="#04875E">The Lifecycle</text><circle cx="580.0" cy="537.0" r="3" fill="#059669"/><text x="590.0" y="541.0" font-size="11" fill="#444">Dataset -&gt; Tokenization</text><circle cx="580.0" cy="553.0" r="3" fill="#059669"/><text x="590.0" y="557.0" font-size="11" fill="#444">Training -&gt; Eval -&gt; Deploy</text><circle cx="500.0" cy="630" r="25" fill="#DB2777" stroke="white" stroke-width="4" class="pu" style="animation-delay:0.50s"/><text x="500.0" y="638" text-anchor="middle" fill="white" font-size="20" font-weight="900">6</text><path d="M 475.0 630 L 440.0 630" stroke="#DB2777" stroke-width="3" fill="none" opacity="0.5"/><rect x="120.0" y="585.0" width="320" height="90" rx="12" fill="white" stroke="#DB2777" stroke-width="2" class="box-sd" style="animation-delay:0.60s"/><path d="M 120.0 597.0 Q 120.0 585.0 132.0 585.0 L 428.0 585.0 Q 440.0 585.0 440.0 597.0 L 440.0 615.0 L 120.0 615.0 Z" fill="#F9DEEA"/><text x="135.0" y="605.0" font-size="14" font-weight="900" fill="#831747">6. Build AI Agents</text><text x="135.0" y="630.0" font-size="11" font-weight="700" fill="#C5236B">The Future is Agentic</text><circle cx="140.0" cy="647.0" r="3" fill="#DB2777"/><text x="150.0" y="651.0" font-size="11" fill="#444">Memory &amp; Tool usage</text><circle cx="140.0" cy="663.0" r="3" fill="#DB2777"/><text x="150.0" y="667.0" font-size="11" fill="#444">Autonomy + Human control</text><circle cx="500.0" cy="740" r="25" fill="#0891B2" stroke="white" stroke-width="4" class="pu" style="animation-delay:0.60s"/><text x="500.0" y="748" text-anchor="middle" fill="white" font-size="20" font-weight="900">7</text><path d="M 525.0 740 L 560.0 740" stroke="#0891B2" stroke-width="3" fill="none" opacity="0.5"/><rect x="560.0" y="695.0" width="320" height="90" rx="12" fill="white" stroke="#0891B2" stroke-width="2" class="box-sd" style="animation-delay:0.70s"/><path d="M 560.0 707.0 Q 560.0 695.0 572.0 695.0 L 868.0 695.0 Q 880.0 695.0 880.0 707.0 L 880.0 725.0 L 560.0 725.0 Z" fill="#D9EEF3"/><text x="575.0" y="715.0" font-size="14" font-weight="900" fill="#04576A">7. Vision Models</text><text x="575.0" y="740.0" font-size="11" font-weight="700" fill="#0782A0">Text is just the start</text><circle cx="580.0" cy="757.0" r="3" fill="#0891B2"/><text x="590.0" y="761.0" font-size="11" fill="#444">GANs &amp; Image Gen</text><circle cx="580.0" cy="773.0" r="3" fill="#0891B2"/><text x="590.0" y="777.0" font-size="11" fill="#444">Vision + Language leap</text><circle cx="500.0" cy="850" r="25" fill="#2563EB" stroke="white" stroke-width="4" class="pu" style="animation-delay:0.70s"/><text x="500.0" y="858" text-anchor="middle" fill="white" font-size="20" font-weight="900">8</text><path d="M 475.0 850 L 440.0 850" stroke="#2563EB" stroke-width="3" fill="none" opacity="0.5"/><rect x="120.0" y="805.0" width="320" height="90" rx="12" fill="white" stroke="#2563EB" stroke-width="2" class="box-sd" style="animation-delay:0.80s"/><path d="M 120.0 817.0 Q 120.0 805.0 132.0 805.0 L 428.0 805.0 Q 440.0 805.0 440.0 817.0 L 440.0 835.0 L 120.0 835.0 Z" fill="#DEE7FC"/><text x="135.0" y="825.0" font-size="14" font-weight="900" fill="#163B8D">8. Keep Learning</text><text x="135.0" y="850.0" font-size="11" font-weight="700" fill="#2159D3">Build. Ship. Iterate.</text><circle cx="140.0" cy="867.0" r="3" fill="#2563EB"/><text x="150.0" y="871.0" font-size="11" fill="#444">DeepLearning.AI, Kaggle</text><circle cx="140.0" cy="883.0" r="3" fill="#2563EB"/><text x="150.0" y="887.0" font-size="11" fill="#444">Google Labs, Nvidia</text>
<rect x="0" y="1070" width="1000" height="30" fill="#F2F9FB"/>
<rect x="0" y="1069" width="1000" height="1" fill="#E2E8F0"/>
<text x="18" y="1089" fill="#94A3B8" font-size="8.5">March 2026 · Komal Batra</text>
<rect x="780" y="1076" width="208" height="18" rx="9" fill="rgba(8,145,178,0.12)" stroke="#0891B2" stroke-width="1"/>
<text x="884" y="1088" text-anchor="middle" fill="#0891B2" font-size="9" font-weight="800" letter-spacing="0.8">AI (c) Komal Batra</text>
</svg>