<svg xmlns="http://www.w3.org/2000/svg" viewBox="0 0 1000 1100" width="1000" height="1100" style="display:block;font-family:Arial,sans-serif;overflow:hidden">
<defs>
  <linearGradient id="HG" x1="0" x2="1" y1="0" y2="0">
    <stop offset="0%" stop-color="#613502"/>
    <stop offset="100%" stop-color="#8D4D03"/>
  </linearGradient>
  <linearGradient id="BG" x1="0" x2="0" y1="0" y2="1">
    <stop offset="0%" stop-color="#FDF9F5"/>
    <stop offset="100%" stop-color="#FEFCFA"/>
  </linearGradient>
</defs>
<style>
  @keyframes fd{from{opacity:0;transform:translateY(6px)}to{opacity:1;transform:translateY(0)}}
  @keyframes fr{0%{stroke-dashoffset:24}100%{stroke-dashoffset:0}}
  @keyframes pu{0%,100%{opacity:1}50%{opacity:0.55}}
  .fi{animation:fd .5s ease-out both}
  .flow{stroke-dasharray:8 4;animation:fr 1.4s linear infinite}
  .pu{animation:pu 2.2s ease-in-out infinite}
</style>
<rect width="1000" height="1100" fill="url(#BG)"/>
<pattern id="dots" width="20" height="20" patternUnits="userSpaceOnUse"><circle cx="1" cy="1" r="0.65" fill="rgba(217,119,6,0.1)"/></pattern><rect width="1000" height="1100" fill="url(#dots)"/>
<rect x="0" y="0" width="1000" height="58" fill="url(#HG)"/>
<rect x="0" y="56" width="1000" height="2" fill="#D97706" opacity="0.7"/>
<rect x="16" y="13" width="246" height="18" rx="9" fill="rgba(217,119,6,0.25)" stroke="rgba(217,119,6,0.55)" stroke-width="1"/>
<text x="28" y="25" fill="white" font-size="8" font-weight="700" letter-spacing="1.6">CONCEPT &amp; TOOL OVERVIEW STRATEGY</text>
<text x="500" y="40" text-anchor="middle" fill="white" font-size="20" font-weight="900" letter-spacing="-0.3">Generative AI Learning Roadmap</text>
<line x1="500.0" y1="60" x2="500.0" y2="1050" stroke="gray" stroke-width="8" class="flow" stroke-linecap="round"/><line x1="500.0" y1="60" x2="500.0" y2="1050" stroke="white" stroke-width="2" stroke-dasharray="12 12" stroke-linecap="round"/><path d="M 490.0 80 L 440.0 80" stroke="gray" stroke-width="3" stroke-dasharray="5 5" fill="none" class="flow"/><polygon points="445.0,80 435.0,75 435.0,85" fill="gray"/><rect x="40.0" y="30.0" width="400" height="100" rx="12" fill="white" stroke="#D97706" stroke-width="3" stroke-dasharray="10 5" class="box-sd" style="animation-delay:0.00s"/><rect x="100.0" y="18.0" width="280" height="24" rx="12" fill="#D97706"/><circle cx="100.0" cy="30.0" r="16" fill="#975304"/><text x="100.0" y="36.0" text-anchor="middle" fill="white" font-size="16" font-weight="900">1</text><text x="125.0" y="34.0" text-anchor="start" fill="white" font-size="12" font-weight="800">What is Generative AI</text><text x="240.0" y="65.0" text-anchor="middle" font-size="12" font-weight="800" fill="#824703">AI -&gt; ML -&gt; DL -&gt; GenAI</text><rect x="60.0" y="80.0" width="160" height="35" rx="6" fill="#FBF1E6"/><text x="140.0" y="102.0" text-anchor="middle" font-size="10" fill="gray" font-weight="600">Learn how models generate data</text><rect x="260.0" y="80.0" width="160" height="35" rx="6" fill="#FDF8F2"/><text x="340.0" y="102.0" text-anchor="middle" font-size="10" fill="gray" font-weight="600">Clarity saves months later</text><path d="M 510.0 200 L 560.0 200" stroke="gray" stroke-width="3" stroke-dasharray="5 5" fill="none" class="flow"/><polygon points="555.0,200 565.0,195 565.0,205" fill="gray"/><rect x="560.0" y="150.0" width="400" height="100" rx="12" fill="white" stroke="#DB2777" stroke-width="3" stroke-dasharray="10 5" class="box-sd" style="animation-delay:0.10s"/><rect x="620.0" y="138.0" width="280" height="24" rx="12" fill="#DB2777"/><circle cx="620.0" cy="150.0" r="16" fill="#991B53"/><text x="620.0" y="156.0" text-anchor="middle" fill="white" font-size="16" font-weight="900">2</text><text x="645.0" y="154.0" text-anchor="start" fill="white" font-size="12" font-weight="800">Important Concepts</text><text x="760.0" y="185.0" text-anchor="middle" font-size="12" font-weight="800" fill="#831747">Math Foundations</text><rect x="580.0" y="200.0" width="160" height="35" rx="6" fill="#FBE9F1"/><text x="660.0" y="222.0" text-anchor="middle" font-size="10" fill="gray" font-weight="600">Probability &amp; Stats</text><rect x="780.0" y="200.0" width="160" height="35" rx="6" fill="#FDF4F8"/><text x="860.0" y="222.0" text-anchor="middle" font-size="10" fill="gray" font-weight="600">Linear Algebra</text><path d="M 510.0 320 L 560.0 320" stroke="gray" stroke-width="3" stroke-dasharray="5 5" fill="none" class="flow"/><polygon points="555.0,320 565.0,315 565.0,325" fill="gray"/><rect x="560.0" y="270.0" width="400" height="100" rx="12" fill="white" stroke="#0891B2" stroke-width="3" stroke-dasharray="10 5" class="box-sd" style="animation-delay:0.20s"/><rect x="620.0" y="258.0" width="280" height="24" rx="12" fill="#0891B2"/><circle cx="620.0" cy="270.0" r="16" fill="#05657C"/><text x="620.0" y="276.0" text-anchor="middle" fill="white" font-size="16" font-weight="900">3</text><text x="645.0" y="274.0" text-anchor="start" fill="white" font-size="12" font-weight="800">Foundation Models</text><text x="760.0" y="305.0" text-anchor="middle" font-size="12" font-weight="800" fill="#04576A">Get Hands-on</text><rect x="580.0" y="320.0" width="160" height="35" rx="6" fill="#E6F4F7"/><text x="660.0" y="342.0" text-anchor="middle" font-size="10" fill="gray" font-weight="600">GPT, Llama, Gemini, Claude</text><rect x="780.0" y="320.0" width="160" height="35" rx="6" fill="#F2F9FB"/><text x="860.0" y="342.0" text-anchor="middle" font-size="10" fill="gray" font-weight="600">Understand training &amp; usage</text><path d="M 490.0 440 L 440.0 440" stroke="gray" stroke-width="3" stroke-dasharray="5 5" fill="none" class="flow"/><polygon points="445.0,440 435.0,435 435.0,445" fill="gray"/><rect x="40.0" y="390.0" width="400" height="100" rx="12" fill="white" stroke="#059669" stroke-width="3" stroke-dasharray="10 5" class="box-sd" style="animation-delay:0.30s"/><rect x="100.0" y="378.0" width="280" height="24" rx="12" fill="#059669"/><circle cx="100.0" cy="390.0" r="16" fill="#036949"/><text x="100.0" y="396.0" text-anchor="middle" fill="white" font-size="16" font-weight="900">4</text><text x="125.0" y="394.0" text-anchor="start" fill="white" font-size="12" font-weight="800">GenAI Dev Stack</text><text x="240.0" y="425.0" text-anchor="middle" font-size="12" font-weight="800" fill="#035A3F">Practical Tools</text><rect x="60.0" y="440.0" width="160" height="35" rx="6" fill="#E6F4F0"/><text x="140.0" y="462.0" text-anchor="middle" font-size="10" fill="gray" font-weight="600">Python, LangChain</text><rect x="260.0" y="440.0" width="160" height="35" rx="6" fill="#F2F9F7"/><text x="340.0" y="462.0" text-anchor="middle" font-size="10" fill="gray" font-weight="600">Vector DBs, Hugging Face</text><path d="M 510.0 560 L 560.0 560" stroke="gray" stroke-width="3" stroke-dasharray="5 5" fill="none" class="flow"/><polygon points="555.0,560 565.0,555 565.0,565" fill="gray"/><rect x="560.0" y="510.0" width="400" height="100" rx="12" fill="white" stroke="#7C3AED" stroke-width="3" stroke-dasharray="10 5" class="box-sd" style="animation-delay:0.40s"/><rect x="620.0" y="498.0" width="280" height="24" rx="12" fill="#7C3AED"/><circle cx="620.0" cy="510.0" r="16" fill="#5628A5"/><text x="620.0" y="516.0" text-anchor="middle" fill="white" font-size="16" font-weight="900">5</text><text x="645.0" y="514.0" text-anchor="start" fill="white" font-size="12" font-weight="800">Training a Foundation Model</text><text x="760.0" y="545.0" text-anchor="middle" font-size="12" font-weight="800" fill="#4A228E">The Lifecycle</text><rect x="580.0" y="560.0" width="160" height="35" rx="6" fill="#F1EBFD"/><text x="660.0" y="582.0" text-anchor="middle" font-size="10" fill="gray" font-weight="600">Dataset -&gt; Tokenization</text><rect x="780.0" y="560.0" width="160" height="35" rx="6" fill="#F8F5FE"/><text x="860.0" y="582.0" text-anchor="middle" font-size="10" fill="gray" font-weight="600">Training -&gt; Eval -&gt; Deploy</text><path d="M 490.0 680 L 440.0 680" stroke="gray" stroke-width="3" stroke-dasharray="5 5" fill="none" class="flow"/><polygon points="445.0,680 435.0,675 435.0,685" fill="gray"/><rect x="40.0" y="630.0" width="400" height="100" rx="12" fill="white" stroke="#2563EB" stroke-width="3" stroke-dasharray="10 5" class="box-sd" style="animation-delay:0.50s"/><rect x="100.0" y="618.0" width="280" height="24" rx="12" fill="#2563EB"/><circle cx="100.0" cy="630.0" r="16" fill="#1945A4"/><text x="100.0" y="636.0" text-anchor="middle" fill="white" font-size="16" font-weight="900">6</text><text x="125.0" y="634.0" text-anchor="start" fill="white" font-size="12" font-weight="800">Building AI Agents</text><text x="240.0" y="665.0" text-anchor="middle" font-size="12" font-weight="800" fill="#163B8D">The Future is Agentic</text><rect x="60.0" y="680.0" width="160" height="35" rx="6" fill="#E9EFFD"/><text x="140.0" y="702.0" text-anchor="middle" font-size="10" fill="gray" font-weight="600">Memory &amp; Tool usage</text><rect x="260.0" y="680.0" width="160" height="35" rx="6" fill="#F4F7FE"/><text x="340.0" y="702.0" text-anchor="middle" font-size="10" fill="gray" font-weight="600">Autonomy + Human control</text><path d="M 510.0 800 L 560.0 800" stroke="gray" stroke-width="3" stroke-dasharray="5 5" fill="none" class="flow"/><polygon points="555.0,800 565.0,795 565.0,805" fill="gray"/><rect x="560.0" y="750.0" width="400" height="100" rx="12" fill="white" stroke="#D97706" stroke-width="3" stroke-dasharray="10 5" class="box-sd" style="animation-delay:0.60s"/><rect x="620.0" y="738.0" width="280" height="24" rx="12" fill="#D97706"/><circle cx="620.0" cy="750.0" r="16" fill="#975304"/><text x="620.0" y="756.0" text-anchor="middle" fill="white" font-size="16" font-weight="900">7</text><text x="645.0" y="754.0" text-anchor="start" fill="white" font-size="12" font-weight="800">GenAI Models for Computer Vision</text><text x="760.0" y="785.0" text-anchor="middle" font-size="12" font-weight="800" fill="#824703">Text is just the start</text><rect x="580.0" y="800.0" width="160" height="35" rx="6" fill="#FBF1E6"/><text x="660.0" y="822.0" text-anchor="middle" font-size="10" fill="gray" font-weight="600">GANs &amp; Image Gen</text><rect x="780.0" y="800.0" width="160" height="35" rx="6" fill="#FDF8F2"/><text x="860.0" y="822.0" text-anchor="middle" font-size="10" fill="gray" font-weight="600">Vision + Language leap</text><path d="M 510.0 920 L 560.0 920" stroke="gray" stroke-width="3" stroke-dasharray="5 5" fill="none" class="flow"/><polygon points="555.0,920 565.0,915 565.0,925" fill="gray"/><rect x="560.0" y="870.0" width="400" height="100" rx="12" fill="white" stroke="#DB2777" stroke-width="3" stroke-dasharray="10 5" class="box-sd" style="animation-delay:0.70s"/><rect x="620.0" y="858.0" width="280" height="24" rx="12" fill="#DB2777"/><circle cx="620.0" cy="870.0" r="16" fill="#991B53"/><text x="620.0" y="876.0" text-anchor="middle" fill="white" font-size="16" font-weight="900">8</text><text x="645.0" y="874.0" text-anchor="start" fill="white" font-size="12" font-weight="800">GenAI Learning Resources</text><text x="760.0" y="905.0" text-anchor="middle" font-size="12" font-weight="800" fill="#831747">Build. Ship. Iterate.</text><rect x="580.0" y="920.0" width="160" height="35" rx="6" fill="#FBE9F1"/><text x="660.0" y="942.0" text-anchor="middle" font-size="10" fill="gray" font-weight="600">DeepLearning.AI, Kaggle</text><rect x="780.0" y="920.0" width="160" height="35" rx="6" fill="#FDF4F8"/><text x="860.0" y="942.0" text-anchor="middle" font-size="10" fill="gray" font-weight="600">Google Labs, Nvidia</text>
<rect x="0" y="1070" width="1000" height="30" fill="#FDF8F2"/>
<rect x="0" y="1069" width="1000" height="1" fill="#E2E8F0"/>
<text x="18" y="1089" fill="#94A3B8" font-size="8.5">March 2026 · Komal Batra</text>
<rect x="780" y="1076" width="208" height="18" rx="9" fill="rgba(217,119,6,0.12)" stroke="#D97706" stroke-width="1"/>
<text x="884" y="1088" text-anchor="middle" fill="#D97706" font-size="9" font-weight="800" letter-spacing="0.8">AI (c) Komal Batra</text>
</svg>