<svg xmlns="http://www.w3.org/2000/svg" viewBox="0 0 1000 850" width="1000" height="850" style="display:block;font-family:Arial,sans-serif;overflow:hidden">
<defs>
  <linearGradient id="HG" x1="0" x2="1" y1="0" y2="0">
    <stop offset="0%" stop-color="#371A6A"/>
    <stop offset="100%" stop-color="#50259A"/>
  </linearGradient>
  <linearGradient id="BG" x1="0" x2="0" y1="0" y2="1">
    <stop offset="0%" stop-color="#F7F3FD"/>
    <stop offset="100%" stop-color="#F9F7FE"/>
  </linearGradient>
</defs>
<style>
  @keyframes fd{from{opacity:0;transform:translateY(6px)}to{opacity:1;transform:translateY(0)}}
  @keyframes fr{0%{stroke-dashoffset:24}100%{stroke-dashoffset:0}}
  @keyframes pu{0%,100%{opacity:1}50%{opacity:0.55}}
  .fi{animation:fd .5s ease-out both}
  .flow{stroke-dasharray:8 4;animation:fr 1.4s linear infinite}
  .pu{animation:pu 2.2s ease-in-out infinite}
</style>
<rect width="1000" height="850" fill="url(#BG)"/>
<pattern id="dots" width="20" height="20" patternUnits="userSpaceOnUse"><circle cx="1" cy="1" r="0.65" fill="rgba(124,58,237,0.1)"/></pattern><rect width="1000" height="850" fill="url(#dots)"/>
<rect x="0" y="0" width="1000" height="58" fill="url(#HG)"/>
<rect x="0" y="56" width="1000" height="2" fill="#7C3AED" opacity="0.7"/>
<rect x="16" y="13" width="232" height="18" rx="9" fill="rgba(124,58,237,0.25)" stroke="rgba(124,58,237,0.55)" stroke-width="1"/>
<text x="28" y="25" fill="white" font-size="8" font-weight="700" letter-spacing="1.6">EVOLUTION &amp; EXECUTION PIPELINE</text>
<text x="500" y="40" text-anchor="middle" fill="white" font-size="20" font-weight="900" letter-spacing="-0.3">LLM vs Generative AI vs AI Agents Agentic AI</text>
<rect x="5.0" y="50" width="240.0" height="40" rx="4" fill="#7C3AED"/><text x="125.0" y="75" text-anchor="middle" fill="white" font-size="16" font-weight="bold">LLM</text><rect x="5.0" y="95" width="240.0" height="700" fill="#F1EBFD" stroke="#D7C3F9" stroke-width="1"/><circle cx="125.0" cy="140" r="18" fill="white" stroke="#7C3AED" stroke-width="3" class="pu"/><text x="125.0" y="144" text-anchor="middle" fill="#632EBD" font-size="12" font-weight="bold">1</text><text x="125.0" y="175" text-anchor="middle" fill="black" font-size="11" font-weight="600">Choose Cloud</text><line x1="125.0" y1="160.0" x2="125.0" y2="228.33333333333331" stroke="#632EBD" stroke-width="2" class="flow" style="animation-delay:0.10s"/><polygon points="125.0,233.33333333333331 121.0,226.33333333333331 129.0,226.33333333333331" fill="#632EBD"/><circle cx="125.0" cy="248.33333333333331" r="18" fill="white" stroke="#7C3AED" stroke-width="3" class="pu"/><text x="125.0" y="252.33333333333331" text-anchor="middle" fill="#632EBD" font-size="12" font-weight="bold">2</text><text x="125.0" y="283.3333333333333" text-anchor="middle" fill="black" font-size="11" font-weight="600">Tokenization</text><line x1="125.0" y1="268.3333333333333" x2="125.0" y2="336.66666666666663" stroke="#632EBD" stroke-width="2" class="flow" style="animation-delay:0.20s"/><polygon points="125.0,341.66666666666663 121.0,334.66666666666663 129.0,334.66666666666663" fill="#632EBD"/><circle cx="125.0" cy="356.66666666666663" r="18" fill="white" stroke="#7C3AED" stroke-width="3" class="pu"/><text x="125.0" y="360.66666666666663" text-anchor="middle" fill="#632EBD" font-size="12" font-weight="bold">3</text><text x="125.0" y="391.66666666666663" text-anchor="middle" fill="black" font-size="11" font-weight="600">Context Understanding</text><line x1="125.0" y1="376.66666666666663" x2="125.0" y2="444.99999999999994" stroke="#632EBD" stroke-width="2" class="flow" style="animation-delay:0.30s"/><polygon points="125.0,449.99999999999994 121.0,442.99999999999994 129.0,442.99999999999994" fill="#632EBD"/><path d="M 125.0 444.99999999999994 L 125.0 454.99999999999994 L 75.0 454.99999999999994 L 75.0 464.99999999999994" fill="none" stroke="#632EBD" stroke-width="2"/><path d="M 125.0 444.99999999999994 L 125.0 454.99999999999994 L 175.0 454.99999999999994 L 175.0 464.99999999999994" fill="none" stroke="#632EBD" stroke-width="2"/><circle cx="75.0" cy="474.99999999999994" r="15" fill="white" stroke="#7C3AED" stroke-width="2"/><text x="75.0" y="504.99999999999994" text-anchor="middle" fill="black" font-size="10">Apply Layers</text><circle cx="175.0" cy="474.99999999999994" r="15" fill="white" stroke="#7C3AED" stroke-width="2"/><text x="175.0" y="504.99999999999994" text-anchor="middle" fill="black" font-size="10">Use Weights</text><path d="M 75.0 515.0 L 75.0 525.0 L 125.0 525.0 L 125.0 535.0" fill="none" stroke="#632EBD" stroke-width="2"/><path d="M 175.0 515.0 L 175.0 525.0 L 125.0 525.0 L 125.0 535.0" fill="none" stroke="#632EBD" stroke-width="2"/><line x1="125.0" y1="515.0" x2="125.0" y2="583.3333333333333" stroke="#632EBD" stroke-width="2" class="flow" style="animation-delay:0.40s"/><polygon points="125.0,588.3333333333333 121.0,581.3333333333333 129.0,581.3333333333333" fill="#632EBD"/><circle cx="125.0" cy="603.3333333333333" r="18" fill="white" stroke="#7C3AED" stroke-width="3" class="pu"/><text x="125.0" y="607.3333333333333" text-anchor="middle" fill="#632EBD" font-size="12" font-weight="bold">5</text><text x="125.0" y="638.3333333333333" text-anchor="middle" fill="black" font-size="11" font-weight="600">Token Prediction</text><line x1="125.0" y1="623.3333333333333" x2="125.0" y2="691.6666666666666" stroke="#632EBD" stroke-width="2" class="flow" style="animation-delay:0.50s"/><polygon points="125.0,696.6666666666666 121.0,689.6666666666666 129.0,689.6666666666666" fill="#632EBD"/><circle cx="125.0" cy="711.6666666666666" r="18" fill="white" stroke="#7C3AED" stroke-width="3" class="pu"/><text x="125.0" y="715.6666666666666" text-anchor="middle" fill="#632EBD" font-size="12" font-weight="bold">6</text><text x="125.0" y="746.6666666666666" text-anchor="middle" fill="black" font-size="11" font-weight="600">Output Construct</text><rect x="255.0" y="50" width="240.0" height="40" rx="4" fill="#0891B2"/><text x="375.0" y="75" text-anchor="middle" fill="white" font-size="16" font-weight="bold">Generative AI</text><rect x="255.0" y="95" width="240.0" height="700" fill="#E6F4F7" stroke="#B4DEE7" stroke-width="1"/><circle cx="375.0" cy="140" r="18" fill="white" stroke="#0891B2" stroke-width="3" class="pu"/><text x="375.0" y="144" text-anchor="middle" fill="#06748E" font-size="12" font-weight="bold">1</text><text x="375.0" y="175" text-anchor="middle" fill="black" font-size="11" font-weight="600">Input Collection</text><line x1="375.0" y1="160.0" x2="375.0" y2="228.33333333333331" stroke="#06748E" stroke-width="2" class="flow" style="animation-delay:0.30s"/><polygon points="375.0,233.33333333333331 371.0,226.33333333333331 379.0,226.33333333333331" fill="#06748E"/><circle cx="375.0" cy="248.33333333333331" r="18" fill="white" stroke="#0891B2" stroke-width="3" class="pu"/><text x="375.0" y="252.33333333333331" text-anchor="middle" fill="#06748E" font-size="12" font-weight="bold">2</text><text x="375.0" y="283.3333333333333" text-anchor="middle" fill="black" font-size="11" font-weight="600">Feature Mapping</text><line x1="375.0" y1="268.3333333333333" x2="375.0" y2="336.66666666666663" stroke="#06748E" stroke-width="2" class="flow" style="animation-delay:0.40s"/><polygon points="375.0,341.66666666666663 371.0,334.66666666666663 379.0,334.66666666666663" fill="#06748E"/><circle cx="375.0" cy="356.66666666666663" r="18" fill="white" stroke="#0891B2" stroke-width="3" class="pu"/><text x="375.0" y="360.66666666666663" text-anchor="middle" fill="#06748E" font-size="12" font-weight="bold">3</text><text x="375.0" y="391.66666666666663" text-anchor="middle" fill="black" font-size="11" font-weight="600">Pattern Learning</text><line x1="375.0" y1="376.66666666666663" x2="375.0" y2="444.99999999999994" stroke="#06748E" stroke-width="2" class="flow" style="animation-delay:0.50s"/><polygon points="375.0,449.99999999999994 371.0,442.99999999999994 379.0,442.99999999999994" fill="#06748E"/><path d="M 375.0 444.99999999999994 L 375.0 454.99999999999994 L 325.0 454.99999999999994 L 325.0 464.99999999999994" fill="none" stroke="#06748E" stroke-width="2"/><path d="M 375.0 444.99999999999994 L 375.0 454.99999999999994 L 425.0 454.99999999999994 L 425.0 464.99999999999994" fill="none" stroke="#06748E" stroke-width="2"/><circle cx="325.0" cy="474.99999999999994" r="15" fill="white" stroke="#0891B2" stroke-width="2"/><text x="325.0" y="504.99999999999994" text-anchor="middle" fill="black" font-size="10">Leverage models</text><circle cx="425.0" cy="474.99999999999994" r="15" fill="white" stroke="#0891B2" stroke-width="2"/><text x="425.0" y="504.99999999999994" text-anchor="middle" fill="black" font-size="10">Identify latent</text><path d="M 325.0 515.0 L 325.0 525.0 L 375.0 525.0 L 375.0 535.0" fill="none" stroke="#06748E" stroke-width="2"/><path d="M 425.0 515.0 L 425.0 525.0 L 375.0 525.0 L 375.0 535.0" fill="none" stroke="#06748E" stroke-width="2"/><line x1="375.0" y1="515.0" x2="375.0" y2="583.3333333333333" stroke="#06748E" stroke-width="2" class="flow" style="animation-delay:0.60s"/><polygon points="375.0,588.3333333333333 371.0,581.3333333333333 379.0,581.3333333333333" fill="#06748E"/><circle cx="375.0" cy="603.3333333333333" r="18" fill="white" stroke="#0891B2" stroke-width="3" class="pu"/><text x="375.0" y="607.3333333333333" text-anchor="middle" fill="#06748E" font-size="12" font-weight="bold">5</text><text x="375.0" y="638.3333333333333" text-anchor="middle" fill="black" font-size="11" font-weight="600">Content Gen</text><line x1="375.0" y1="623.3333333333333" x2="375.0" y2="691.6666666666666" stroke="#06748E" stroke-width="2" class="flow" style="animation-delay:0.70s"/><polygon points="375.0,696.6666666666666 371.0,689.6666666666666 379.0,689.6666666666666" fill="#06748E"/><circle cx="375.0" cy="711.6666666666666" r="18" fill="white" stroke="#0891B2" stroke-width="3" class="pu"/><text x="375.0" y="715.6666666666666" text-anchor="middle" fill="#06748E" font-size="12" font-weight="bold">6</text><text x="375.0" y="746.6666666666666" text-anchor="middle" fill="black" font-size="11" font-weight="600">Refinement</text><rect x="505.0" y="50" width="240.0" height="40" rx="4" fill="#DB2777"/><text x="625.0" y="75" text-anchor="middle" fill="white" font-size="16" font-weight="bold">AI Agents</text><rect x="505.0" y="95" width="240.0" height="700" fill="#FBE9F1" stroke="#F4BED6" stroke-width="1"/><circle cx="625.0" cy="140" r="18" fill="white" stroke="#DB2777" stroke-width="3" class="pu"/><text x="625.0" y="144" text-anchor="middle" fill="#AF1F5F" font-size="12" font-weight="bold">1</text><text x="625.0" y="175" text-anchor="middle" fill="black" font-size="11" font-weight="600">Task Triggered</text><line x1="625.0" y1="160.0" x2="625.0" y2="228.33333333333331" stroke="#AF1F5F" stroke-width="2" class="flow" style="animation-delay:0.50s"/><polygon points="625.0,233.33333333333331 621.0,226.33333333333331 629.0,226.33333333333331" fill="#AF1F5F"/><circle cx="625.0" cy="248.33333333333331" r="18" fill="white" stroke="#DB2777" stroke-width="3" class="pu"/><text x="625.0" y="252.33333333333331" text-anchor="middle" fill="#AF1F5F" font-size="12" font-weight="bold">2</text><text x="625.0" y="283.3333333333333" text-anchor="middle" fill="black" font-size="11" font-weight="600">Intent Detection</text><line x1="625.0" y1="268.3333333333333" x2="625.0" y2="336.66666666666663" stroke="#AF1F5F" stroke-width="2" class="flow" style="animation-delay:0.60s"/><polygon points="625.0,341.66666666666663 621.0,334.66666666666663 629.0,334.66666666666663" fill="#AF1F5F"/><path d="M 625.0 336.66666666666663 L 625.0 346.66666666666663 L 575.0 346.66666666666663 L 575.0 356.66666666666663" fill="none" stroke="#AF1F5F" stroke-width="2"/><path d="M 625.0 336.66666666666663 L 625.0 346.66666666666663 L 675.0 346.66666666666663 L 675.0 356.66666666666663" fill="none" stroke="#AF1F5F" stroke-width="2"/><circle cx="575.0" cy="366.66666666666663" r="15" fill="white" stroke="#DB2777" stroke-width="2"/><text x="575.0" y="396.66666666666663" text-anchor="middle" fill="black" font-size="10">Understand</text><circle cx="675.0" cy="366.66666666666663" r="15" fill="white" stroke="#DB2777" stroke-width="2"/><text x="675.0" y="396.66666666666663" text-anchor="middle" fill="black" font-size="10">Classify</text><path d="M 575.0 406.66666666666663 L 575.0 416.66666666666663 L 625.0 416.66666666666663 L 625.0 426.66666666666663" fill="none" stroke="#AF1F5F" stroke-width="2"/><path d="M 675.0 406.66666666666663 L 675.0 416.66666666666663 L 625.0 416.66666666666663 L 625.0 426.66666666666663" fill="none" stroke="#AF1F5F" stroke-width="2"/><line x1="625.0" y1="406.66666666666663" x2="625.0" y2="474.99999999999994" stroke="#AF1F5F" stroke-width="2" class="flow" style="animation-delay:0.70s"/><polygon points="625.0,479.99999999999994 621.0,472.99999999999994 629.0,472.99999999999994" fill="#AF1F5F"/><circle cx="625.0" cy="494.99999999999994" r="18" fill="white" stroke="#DB2777" stroke-width="3" class="pu"/><text x="625.0" y="498.99999999999994" text-anchor="middle" fill="#AF1F5F" font-size="12" font-weight="bold">4</text><text x="625.0" y="530.0" text-anchor="middle" fill="black" font-size="11" font-weight="600">Rule Execution</text><line x1="625.0" y1="515.0" x2="625.0" y2="583.3333333333333" stroke="#AF1F5F" stroke-width="2" class="flow" style="animation-delay:0.80s"/><polygon points="625.0,588.3333333333333 621.0,581.3333333333333 629.0,581.3333333333333" fill="#AF1F5F"/><circle cx="625.0" cy="603.3333333333333" r="18" fill="white" stroke="#DB2777" stroke-width="3" class="pu"/><text x="625.0" y="607.3333333333333" text-anchor="middle" fill="#AF1F5F" font-size="12" font-weight="bold">5</text><text x="625.0" y="638.3333333333333" text-anchor="middle" fill="black" font-size="11" font-weight="600">Tool / API Call</text><line x1="625.0" y1="623.3333333333333" x2="625.0" y2="691.6666666666666" stroke="#AF1F5F" stroke-width="2" class="flow" style="animation-delay:0.90s"/><polygon points="625.0,696.6666666666666 621.0,689.6666666666666 629.0,689.6666666666666" fill="#AF1F5F"/><circle cx="625.0" cy="711.6666666666666" r="18" fill="white" stroke="#DB2777" stroke-width="3" class="pu"/><text x="625.0" y="715.6666666666666" text-anchor="middle" fill="#AF1F5F" font-size="12" font-weight="bold">6</text><text x="625.0" y="746.6666666666666" text-anchor="middle" fill="black" font-size="11" font-weight="600">Result Gen</text><rect x="755.0" y="50" width="240.0" height="40" rx="4" fill="#2563EB"/><text x="875.0" y="75" text-anchor="middle" fill="white" font-size="16" font-weight="bold">Agentic AI</text><rect x="755.0" y="95" width="240.0" height="700" fill="#E9EFFD" stroke="#BDD0F9" stroke-width="1"/><path d="M 875.0 120 L 875.0 130 L 825.0 130 L 825.0 140" fill="none" stroke="#1D4FBC" stroke-width="2"/><path d="M 875.0 120 L 875.0 130 L 925.0 130 L 925.0 140" fill="none" stroke="#1D4FBC" stroke-width="2"/><circle cx="825.0" cy="150" r="15" fill="white" stroke="#2563EB" stroke-width="2"/><text x="825.0" y="180" text-anchor="middle" fill="black" font-size="10">Receive Obj</text><circle cx="925.0" cy="150" r="15" fill="white" stroke="#2563EB" stroke-width="2"/><text x="925.0" y="180" text-anchor="middle" fill="black" font-size="10">Understand Cxt</text><path d="M 825.0 190 L 825.0 200 L 875.0 200 L 875.0 210" fill="none" stroke="#1D4FBC" stroke-width="2"/><path d="M 925.0 190 L 925.0 200 L 875.0 200 L 875.0 210" fill="none" stroke="#1D4FBC" stroke-width="2"/><line x1="875.0" y1="190.0" x2="875.0" y2="280.0" stroke="#1D4FBC" stroke-width="2" class="flow" style="animation-delay:0.70s"/><polygon points="875.0,285.0 871.0,278.0 879.0,278.0" fill="#1D4FBC"/><path d="M 875.0 280.0 L 875.0 290.0 L 825.0 290.0 L 825.0 300.0" fill="none" stroke="#1D4FBC" stroke-width="2"/><path d="M 875.0 280.0 L 875.0 290.0 L 925.0 290.0 L 925.0 300.0" fill="none" stroke="#1D4FBC" stroke-width="2"/><circle cx="825.0" cy="310.0" r="15" fill="white" stroke="#2563EB" stroke-width="2"/><text x="825.0" y="340.0" text-anchor="middle" fill="black" font-size="10">Analyze Env</text><circle cx="925.0" cy="310.0" r="15" fill="white" stroke="#2563EB" stroke-width="2"/><text x="925.0" y="340.0" text-anchor="middle" fill="black" font-size="10">Identify Constr</text><path d="M 825.0 350.0 L 825.0 360.0 L 875.0 360.0 L 875.0 370.0" fill="none" stroke="#1D4FBC" stroke-width="2"/><path d="M 925.0 350.0 L 925.0 360.0 L 875.0 360.0 L 875.0 370.0" fill="none" stroke="#1D4FBC" stroke-width="2"/><line x1="875.0" y1="350.0" x2="875.0" y2="440.0" stroke="#1D4FBC" stroke-width="2" class="flow" style="animation-delay:0.80s"/><polygon points="875.0,445.0 871.0,438.0 879.0,438.0" fill="#1D4FBC"/><circle cx="875.0" cy="460.0" r="18" fill="white" stroke="#2563EB" stroke-width="3" class="pu"/><text x="875.0" y="464.0" text-anchor="middle" fill="#1D4FBC" font-size="12" font-weight="bold">3</text><text x="875.0" y="495.0" text-anchor="middle" fill="black" font-size="11" font-weight="600">Reasoning &amp; Planning</text><line x1="875.0" y1="480.0" x2="875.0" y2="570.0" stroke="#1D4FBC" stroke-width="2" class="flow" style="animation-delay:0.90s"/><polygon points="875.0,575.0 871.0,568.0 879.0,568.0" fill="#1D4FBC"/><circle cx="875.0" cy="590.0" r="18" fill="white" stroke="#2563EB" stroke-width="3" class="pu"/><text x="875.0" y="594.0" text-anchor="middle" fill="#1D4FBC" font-size="12" font-weight="bold">4</text><text x="875.0" y="625.0" text-anchor="middle" fill="black" font-size="11" font-weight="600">Autonomous Execution</text><line x1="875.0" y1="610.0" x2="875.0" y2="700.0" stroke="#1D4FBC" stroke-width="2" class="flow" style="animation-delay:1.00s"/><polygon points="875.0,705.0 871.0,698.0 879.0,698.0" fill="#1D4FBC"/><circle cx="875.0" cy="720.0" r="18" fill="white" stroke="#2563EB" stroke-width="3" class="pu"/><text x="875.0" y="724.0" text-anchor="middle" fill="#1D4FBC" font-size="12" font-weight="bold">5</text><text x="875.0" y="755.0" text-anchor="middle" fill="black" font-size="11" font-weight="600">Real-time Monitor</text>
<rect x="0" y="820" width="1000" height="30" fill="#F8F5FE"/>
<rect x="0" y="819" width="1000" height="1" fill="#E2E8F0"/>
<text x="18" y="839" fill="#94A3B8" font-size="8.5">March 2026 · Komal Batra</text>
<rect x="780" y="826" width="208" height="18" rx="9" fill="rgba(124,58,237,0.12)" stroke="#7C3AED" stroke-width="1"/>
<text x="884" y="838" text-anchor="middle" fill="#7C3AED" font-size="9" font-weight="800" letter-spacing="0.8">AI (c) Komal Batra</text>
</svg>