<svg xmlns="http://www.w3.org/2000/svg" viewBox="0 0 900 640" width="900" height="640" style="display:block;font-family:Arial,sans-serif;overflow:hidden">
<defs>
  <linearGradient id="HG" x1="0" x2="1" y1="0" y2="0">
    <stop offset="0%" stop-color="#371A6A"/>
    <stop offset="100%" stop-color="#50259A"/>
  </linearGradient>
  <linearGradient id="BG" x1="0" x2="0" y1="0" y2="1">
    <stop offset="0%" stop-color="#F4EFFD"/>
    <stop offset="100%" stop-color="#F9F7FE"/>
  </linearGradient>
</defs>
<style>
  @keyframes fd{from{opacity:0;transform:translateY(6px)}to{opacity:1;transform:translateY(0)}}
  @keyframes fr{0%{stroke-dashoffset:24}100%{stroke-dashoffset:0}}
  @keyframes pu{0%,100%{opacity:1}50%{opacity:0.55}}
  .fi{animation:fd .5s ease-out both}
  .flow{stroke-dasharray:8 4;animation:fr 1.4s linear infinite}
  .pu{animation:pu 2.2s ease-in-out infinite}
</style>
<rect width="900" height="640" fill="url(#BG)"/>
<pattern id="dots" width="20" height="20" patternUnits="userSpaceOnUse"><circle cx="1" cy="1" r="0.65" fill="rgba(124,58,237,0.1)"/></pattern><rect width="900" height="640" fill="url(#dots)"/>
<rect x="0" y="0" width="900" height="58" fill="url(#HG)"/>
<rect x="0" y="56" width="900" height="2" fill="#7C3AED" opacity="0.7"/>
<rect x="16" y="13" width="148" height="18" rx="9" fill="rgba(124,58,237,0.25)" stroke="rgba(124,58,237,0.55)" stroke-width="1"/>
<text x="28" y="25" fill="white" font-size="8" font-weight="700" letter-spacing="1.6">ALGORITHM TAXONOMY</text>
<text x="450" y="40" text-anchor="middle" fill="white" font-size="20" font-weight="900" letter-spacing="-0.3">Machine Learning Algorithms</text>
<rect x="30" y="322.0" width="140" height="36" rx="8" fill="#7C3AED" class="fi"/><text x="100.0" y="345.0" text-anchor="middle" fill="white" font-size="12" font-weight="800">Machine Learning</text><path d="M 170 340.0 C 210 340.0, 200 195.55555555555554, 240 195.55555555555554" fill="none" stroke="#2563EB" stroke-width="2" class="flow" style="animation-delay:0.00s"/><rect x="240" y="180.55555555555554" width="120" height="30" rx="6" fill="#BDD0F9" stroke="#2563EB" stroke-width="1.5" class="fi" style="animation-delay:0.00s"/><text x="300.0" y="199.55555555555554" text-anchor="middle" fill="#1D4FBC" font-size="11" font-weight="700">Supervised</text><path d="M 360 195.55555555555554 C 390 195.55555555555554, 420 152.22222222222223, 450 152.22222222222223" fill="none" stroke="#2563EB" stroke-width="1.5" stroke-dasharray="4 2"/><rect x="450" y="139.22222222222223" width="110" height="26" rx="6" fill="#7CA1F3" stroke="#2563EB" stroke-width="1" class="fi" style="animation-delay:0.00s"/><text x="505.0" y="156.22222222222223" text-anchor="middle" fill="#163B8D" font-size="10" font-weight="600">Classification</text><path d="M 560 152.22222222222223 C 580 152.22222222222223, 660 94.44444444444444, 680 94.44444444444444" fill="none" stroke="#5082EF" stroke-width="1" class="flow"/><rect x="680" y="83.44444444444444" width="170" height="22" rx="4" fill="#DEE7FC" stroke="#5082EF" stroke-width="1" class="fi" style="animation-delay:0.00s"/><text x="690" y="97.44444444444444" text-anchor="start" fill="#1945A4" font-size="9.5" font-weight="600">Naïve Bayes</text><path d="M 560 152.22222222222223 C 580 152.22222222222223, 660 123.33333333333333, 680 123.33333333333333" fill="none" stroke="#5082EF" stroke-width="1" class="flow"/><rect x="680" y="112.33333333333333" width="170" height="22" rx="4" fill="#DEE7FC" stroke="#5082EF" stroke-width="1" class="fi" style="animation-delay:0.02s"/><text x="690" y="126.33333333333333" text-anchor="start" fill="#1945A4" font-size="9.5" font-weight="600">Logistic Reg.</text><path d="M 560 152.22222222222223 C 580 152.22222222222223, 660 152.22222222222223, 680 152.22222222222223" fill="none" stroke="#5082EF" stroke-width="1" class="flow"/><rect x="680" y="141.22222222222223" width="170" height="22" rx="4" fill="#DEE7FC" stroke="#5082EF" stroke-width="1" class="fi" style="animation-delay:0.04s"/><text x="690" y="155.22222222222223" text-anchor="start" fill="#1945A4" font-size="9.5" font-weight="600">KNN</text><path d="M 560 152.22222222222223 C 580 152.22222222222223, 660 181.11111111111111, 680 181.11111111111111" fill="none" stroke="#5082EF" stroke-width="1" class="flow"/><rect x="680" y="170.11111111111111" width="170" height="22" rx="4" fill="#DEE7FC" stroke="#5082EF" stroke-width="1" class="fi" style="animation-delay:0.06s"/><text x="690" y="184.11111111111111" text-anchor="start" fill="#1945A4" font-size="9.5" font-weight="600">Random Forest</text><path d="M 560 152.22222222222223 C 580 152.22222222222223, 660 210.0, 680 210.0" fill="none" stroke="#5082EF" stroke-width="1" class="flow"/><rect x="680" y="199.0" width="170" height="22" rx="4" fill="#DEE7FC" stroke="#5082EF" stroke-width="1" class="fi" style="animation-delay:0.08s"/><text x="690" y="213.0" text-anchor="start" fill="#1945A4" font-size="9.5" font-weight="600">SVM</text><path d="M 360 195.55555555555554 C 390 195.55555555555554, 420 267.77777777777777, 450 267.77777777777777" fill="none" stroke="#2563EB" stroke-width="1.5" stroke-dasharray="4 2"/><rect x="450" y="254.77777777777777" width="110" height="26" rx="6" fill="#7CA1F3" stroke="#2563EB" stroke-width="1" class="fi" style="animation-delay:0.05s"/><text x="505.0" y="271.77777777777777" text-anchor="middle" fill="#163B8D" font-size="10" font-weight="600">Regression</text><path d="M 560 267.77777777777777 C 580 267.77777777777777, 660 238.88888888888889, 680 238.88888888888889" fill="none" stroke="#5082EF" stroke-width="1" class="flow"/><rect x="680" y="227.88888888888889" width="170" height="22" rx="4" fill="#DEE7FC" stroke="#5082EF" stroke-width="1" class="fi" style="animation-delay:0.05s"/><text x="690" y="241.88888888888889" text-anchor="start" fill="#1945A4" font-size="9.5" font-weight="600">Decision Tree</text><path d="M 560 267.77777777777777 C 580 267.77777777777777, 660 267.77777777777777, 680 267.77777777777777" fill="none" stroke="#5082EF" stroke-width="1" class="flow"/><rect x="680" y="256.77777777777777" width="170" height="22" rx="4" fill="#DEE7FC" stroke="#5082EF" stroke-width="1" class="fi" style="animation-delay:0.07s"/><text x="690" y="270.77777777777777" text-anchor="start" fill="#1945A4" font-size="9.5" font-weight="600">Linear Reg.</text><path d="M 560 267.77777777777777 C 580 267.77777777777777, 660 296.6666666666667, 680 296.6666666666667" fill="none" stroke="#5082EF" stroke-width="1" class="flow"/><rect x="680" y="285.6666666666667" width="170" height="22" rx="4" fill="#DEE7FC" stroke="#5082EF" stroke-width="1" class="fi" style="animation-delay:0.09s"/><text x="690" y="299.6666666666667" text-anchor="start" fill="#1945A4" font-size="9.5" font-weight="600">Lasso Reg.</text><path d="M 170 340.0 C 210 340.0, 200 397.7777777777778, 240 397.7777777777778" fill="none" stroke="#DC2626" stroke-width="2" class="flow" style="animation-delay:0.10s"/><rect x="240" y="382.7777777777778" width="120" height="30" rx="6" fill="#F4BDBD" stroke="#DC2626" stroke-width="1.5" class="fi" style="animation-delay:0.15s"/><text x="300.0" y="401.7777777777778" text-anchor="middle" fill="#B01E1E" font-size="11" font-weight="700">Unsupervised</text><path d="M 360 397.7777777777778 C 390 397.7777777777778, 420 354.44444444444446, 450 354.44444444444446" fill="none" stroke="#DC2626" stroke-width="1.5" stroke-dasharray="4 2"/><rect x="450" y="341.44444444444446" width="110" height="26" rx="6" fill="#EA7C7C" stroke="#DC2626" stroke-width="1" class="fi" style="animation-delay:0.15s"/><text x="505.0" y="358.44444444444446" text-anchor="middle" fill="#841616" font-size="10" font-weight="600">Clustering</text><path d="M 560 354.44444444444446 C 580 354.44444444444446, 660 325.5555555555556, 680 325.5555555555556" fill="none" stroke="#E35151" stroke-width="1" class="flow"/><rect x="680" y="314.5555555555556" width="170" height="22" rx="4" fill="#F9DEDE" stroke="#E35151" stroke-width="1" class="fi" style="animation-delay:0.15s"/><text x="690" y="328.5555555555556" text-anchor="start" fill="#9A1A1A" font-size="9.5" font-weight="600">K-Means</text><path d="M 560 354.44444444444446 C 580 354.44444444444446, 660 354.4444444444445, 680 354.4444444444445" fill="none" stroke="#E35151" stroke-width="1" class="flow"/><rect x="680" y="343.4444444444445" width="170" height="22" rx="4" fill="#F9DEDE" stroke="#E35151" stroke-width="1" class="fi" style="animation-delay:0.17s"/><text x="690" y="357.4444444444445" text-anchor="start" fill="#9A1A1A" font-size="9.5" font-weight="600">DBSCAN</text><path d="M 560 354.44444444444446 C 580 354.44444444444446, 660 383.3333333333334, 680 383.3333333333334" fill="none" stroke="#E35151" stroke-width="1" class="flow"/><rect x="680" y="372.3333333333334" width="170" height="22" rx="4" fill="#F9DEDE" stroke="#E35151" stroke-width="1" class="fi" style="animation-delay:0.19s"/><text x="690" y="386.3333333333334" text-anchor="start" fill="#9A1A1A" font-size="9.5" font-weight="600">PCA</text><path d="M 360 397.7777777777778 C 390 397.7777777777778, 420 426.6666666666668, 450 426.6666666666668" fill="none" stroke="#DC2626" stroke-width="1.5" stroke-dasharray="4 2"/><rect x="450" y="413.6666666666668" width="110" height="26" rx="6" fill="#EA7C7C" stroke="#DC2626" stroke-width="1" class="fi" style="animation-delay:0.20s"/><text x="505.0" y="430.6666666666668" text-anchor="middle" fill="#841616" font-size="10" font-weight="600">Association</text><path d="M 560 426.6666666666668 C 580 426.6666666666668, 660 412.22222222222234, 680 412.22222222222234" fill="none" stroke="#E35151" stroke-width="1" class="flow"/><rect x="680" y="401.22222222222234" width="170" height="22" rx="4" fill="#F9DEDE" stroke="#E35151" stroke-width="1" class="fi" style="animation-delay:0.20s"/><text x="690" y="415.22222222222234" text-anchor="start" fill="#9A1A1A" font-size="9.5" font-weight="600">Apriori</text><path d="M 560 426.6666666666668 C 580 426.6666666666668, 660 441.11111111111126, 680 441.11111111111126" fill="none" stroke="#E35151" stroke-width="1" class="flow"/><rect x="680" y="430.11111111111126" width="170" height="22" rx="4" fill="#F9DEDE" stroke="#E35151" stroke-width="1" class="fi" style="animation-delay:0.22s"/><text x="690" y="444.11111111111126" text-anchor="start" fill="#9A1A1A" font-size="9.5" font-weight="600">FP-Growth</text><path d="M 360 397.7777777777778 C 390 397.7777777777778, 420 470.00000000000017, 450 470.00000000000017" fill="none" stroke="#DC2626" stroke-width="1.5" stroke-dasharray="4 2"/><rect x="450" y="457.00000000000017" width="110" height="26" rx="6" fill="#EA7C7C" stroke="#DC2626" stroke-width="1" class="fi" style="animation-delay:0.25s"/><text x="505.0" y="474.00000000000017" text-anchor="middle" fill="#841616" font-size="10" font-weight="600">Anomaly</text><path d="M 560 470.00000000000017 C 580 470.00000000000017, 660 470.00000000000017, 680 470.00000000000017" fill="none" stroke="#E35151" stroke-width="1" class="flow"/><rect x="680" y="459.00000000000017" width="170" height="22" rx="4" fill="#F9DEDE" stroke="#E35151" stroke-width="1" class="fi" style="animation-delay:0.25s"/><text x="690" y="473.00000000000017" text-anchor="start" fill="#9A1A1A" font-size="9.5" font-weight="600">Isolation Forest</text><path d="M 170 340.0 C 210 340.0, 200 542.2222222222224, 240 542.2222222222224" fill="none" stroke="#0891B2" stroke-width="2" class="flow" style="animation-delay:0.20s"/><rect x="240" y="527.2222222222224" width="120" height="30" rx="6" fill="#B4DEE7" stroke="#0891B2" stroke-width="1.5" class="fi" style="animation-delay:0.30s"/><text x="300.0" y="546.2222222222224" text-anchor="middle" fill="#06748E" font-size="11" font-weight="700">Reinforcement</text><path d="M 360 542.2222222222224 C 390 542.2222222222224, 420 513.3333333333335, 450 513.3333333333335" fill="none" stroke="#0891B2" stroke-width="1.5" stroke-dasharray="4 2"/><rect x="450" y="500.3333333333335" width="110" height="26" rx="6" fill="#6ABDD0" stroke="#0891B2" stroke-width="1" class="fi" style="animation-delay:0.30s"/><text x="505.0" y="517.3333333333335" text-anchor="middle" fill="#04576A" font-size="10" font-weight="600">Model-Free</text><path d="M 560 513.3333333333335 C 580 513.3333333333335, 660 498.8888888888891, 680 498.8888888888891" fill="none" stroke="#39A7C1" stroke-width="1" class="flow"/><rect x="680" y="487.8888888888891" width="170" height="22" rx="4" fill="#D9EEF3" stroke="#39A7C1" stroke-width="1" class="fi" style="animation-delay:0.30s"/><text x="690" y="501.8888888888891" text-anchor="start" fill="#05657C" font-size="9.5" font-weight="600">Q-Learning</text><path d="M 560 513.3333333333335 C 580 513.3333333333335, 660 527.7777777777779, 680 527.7777777777779" fill="none" stroke="#39A7C1" stroke-width="1" class="flow"/><rect x="680" y="516.7777777777779" width="170" height="22" rx="4" fill="#D9EEF3" stroke="#39A7C1" stroke-width="1" class="fi" style="animation-delay:0.32s"/><text x="690" y="530.7777777777779" text-anchor="start" fill="#05657C" font-size="9.5" font-weight="600">Policy Opt.</text><path d="M 360 542.2222222222224 C 390 542.2222222222224, 420 571.1111111111113, 450 571.1111111111113" fill="none" stroke="#0891B2" stroke-width="1.5" stroke-dasharray="4 2"/><rect x="450" y="558.1111111111113" width="110" height="26" rx="6" fill="#6ABDD0" stroke="#0891B2" stroke-width="1" class="fi" style="animation-delay:0.35s"/><text x="505.0" y="575.1111111111113" text-anchor="middle" fill="#04576A" font-size="10" font-weight="600">Model-Based</text><path d="M 560 571.1111111111113 C 580 571.1111111111113, 660 556.6666666666669, 680 556.6666666666669" fill="none" stroke="#39A7C1" stroke-width="1" class="flow"/><rect x="680" y="545.6666666666669" width="170" height="22" rx="4" fill="#D9EEF3" stroke="#39A7C1" stroke-width="1" class="fi" style="animation-delay:0.35s"/><text x="690" y="559.6666666666669" text-anchor="start" fill="#05657C" font-size="9.5" font-weight="600">Learn Model</text><path d="M 560 571.1111111111113 C 580 571.1111111111113, 660 585.5555555555558, 680 585.5555555555558" fill="none" stroke="#39A7C1" stroke-width="1" class="flow"/><rect x="680" y="574.5555555555558" width="170" height="22" rx="4" fill="#D9EEF3" stroke="#39A7C1" stroke-width="1" class="fi" style="animation-delay:0.37s"/><text x="690" y="588.5555555555558" text-anchor="start" fill="#05657C" font-size="9.5" font-weight="600">Given Model</text>
<rect x="0" y="610" width="900" height="30" fill="#F8F5FE"/>
<rect x="0" y="609" width="900" height="1" fill="#E2E8F0"/>
<text x="18" y="629" fill="#94A3B8" font-size="8.5">March 2026 · Komal Batra</text>
<rect x="680" y="616" width="208" height="18" rx="9" fill="rgba(124,58,237,0.12)" stroke="#7C3AED" stroke-width="1"/>
<text x="784" y="628" text-anchor="middle" fill="#7C3AED" font-size="9" font-weight="800" letter-spacing="0.8">AI (c) Komal Batra</text>
</svg>