<svg xmlns="http://www.w3.org/2000/svg" viewBox="0 0 1000 850" width="1000" height="850" style="display:block;font-family:Arial,sans-serif;overflow:hidden">
<defs>
  <linearGradient id="HG" x1="0" x2="1" y1="0" y2="0">
    <stop offset="0%" stop-color="#613502"/>
    <stop offset="100%" stop-color="#8D4D03"/>
  </linearGradient>
  <linearGradient id="BG" x1="0" x2="0" y1="0" y2="1">
    <stop offset="0%" stop-color="#FDF8F2"/>
    <stop offset="100%" stop-color="#FEFCFA"/>
  </linearGradient>
</defs>
<style>
  @keyframes fd{from{opacity:0;transform:translateY(6px)}to{opacity:1;transform:translateY(0)}}
  @keyframes fr{0%{stroke-dashoffset:24}100%{stroke-dashoffset:0}}
  @keyframes pu{0%,100%{opacity:1}50%{opacity:0.55}}
  .fi{animation:fd .5s ease-out both}
  .flow{stroke-dasharray:8 4;animation:fr 1.4s linear infinite}
  .pu{animation:pu 2.2s ease-in-out infinite}
</style>
<rect width="1000" height="850" fill="url(#BG)"/>
<pattern id="dots" width="20" height="20" patternUnits="userSpaceOnUse"><circle cx="1" cy="1" r="0.65" fill="rgba(217,119,6,0.1)"/></pattern><rect width="1000" height="850" fill="url(#dots)"/>
<rect x="0" y="0" width="1000" height="58" fill="url(#HG)"/>
<rect x="0" y="56" width="1000" height="2" fill="#D97706" opacity="0.7"/>
<rect x="16" y="13" width="246" height="18" rx="9" fill="rgba(217,119,6,0.25)" stroke="rgba(217,119,6,0.55)" stroke-width="1"/>
<text x="28" y="25" fill="white" font-size="8" font-weight="700" letter-spacing="1.6">DATA &amp; AI PIPELINE ECOSYSTEM MAP</text>
<text x="500" y="40" text-anchor="middle" fill="white" font-size="20" font-weight="900" letter-spacing="-0.3">Open Source RAG Stack</text>
<rect x="440.0" y="325.0" width="120" height="160" rx="10" fill="#562F02"/><path d="M 460.0 305.0 Q 500.0 295.0 540.0 305.0 L 560.0 325.0 L 440.0 325.0 Z" fill="#E8AD69"/><rect x="450.0" y="345.0" width="100" height="15" rx="4" fill="#E09237"/><rect x="450.0" y="375.0" width="100" height="15" rx="4" fill="#E09237"/><rect x="450.0" y="405.0" width="100" height="15" rx="4" fill="#E09237"/><rect x="450.0" y="435.0" width="100" height="15" rx="4" fill="#E09237"/><path d="M 500.0 405.0 L 250.0 335.0" stroke="#D97706" stroke-width="3" fill="none" class="flow" style="animation-delay:0.00s"/><circle cx="500.0" cy="405.0" r="6" fill="#D97706"/><path d="M 200.0 335.0 L 170.0 335.0 L 170.0 575.0" stroke="gray" stroke-width="2" fill="none"/><line x1="170.0" y1="365.0" x2="150.0" y2="365.0" stroke="gray" stroke-width="2"/><text x="140.0" y="369.0" text-anchor="end" fill="black" font-size="11" font-weight="600">Kubeflow</text><line x1="170.0" y1="405.0" x2="150.0" y2="405.0" stroke="gray" stroke-width="2"/><text x="140.0" y="409.0" text-anchor="end" fill="black" font-size="11" font-weight="600">Apache Airflow</text><line x1="170.0" y1="445.0" x2="150.0" y2="445.0" stroke="gray" stroke-width="2"/><text x="140.0" y="449.0" text-anchor="end" fill="black" font-size="11" font-weight="600">Apache Nifi</text><line x1="170.0" y1="485.0" x2="150.0" y2="485.0" stroke="gray" stroke-width="2"/><text x="140.0" y="489.0" text-anchor="end" fill="black" font-size="11" font-weight="600">LangChain Loaders</text><line x1="170.0" y1="525.0" x2="150.0" y2="525.0" stroke="gray" stroke-width="2"/><text x="140.0" y="529.0" text-anchor="end" fill="black" font-size="11" font-weight="600">Haystack Pipelines</text><line x1="170.0" y1="565.0" x2="150.0" y2="565.0" stroke="gray" stroke-width="2"/><text x="140.0" y="569.0" text-anchor="end" fill="black" font-size="11" font-weight="600">OpenSearch</text><circle cx="250.0" cy="335.0" r="45" fill="white" stroke="#D97706" stroke-width="3" class="fi" style="animation-delay:0.20s"/><text x="250.0" y="330.0" text-anchor="middle" fill="#824703" font-size="11" font-weight="800">Ingest/Data</text><text x="250.0" y="345.0" text-anchor="middle" fill="#824703" font-size="11" font-weight="800">Processing</text><path d="M 500.0 405.0 L 350.0 185.0" stroke="#2563EB" stroke-width="3" fill="none" class="flow" style="animation-delay:0.10s"/><circle cx="500.0" cy="405.0" r="6" fill="#2563EB"/><path d="M 350.0 145.0 L 350.0 115.0 L 250.0 115.0 L 450.0 115.0" stroke="gray" stroke-width="2" fill="none"/><line x1="260.0" y1="115.0" x2="260.0" y2="95.0" stroke="gray" stroke-width="2"/><text x="260.0" y="89.0" text-anchor="middle" fill="black" font-size="10" font-weight="600">Elasticsearch</text><line x1="305.0" y1="115.0" x2="305.0" y2="135.0" stroke="gray" stroke-width="2"/><text x="305.0" y="149.0" text-anchor="middle" fill="black" font-size="10" font-weight="600">Haystack Retrivers</text><line x1="350.0" y1="115.0" x2="350.0" y2="95.0" stroke="gray" stroke-width="2"/><text x="350.0" y="89.0" text-anchor="middle" fill="black" font-size="10" font-weight="600">JinaAI</text><line x1="395.0" y1="115.0" x2="395.0" y2="135.0" stroke="gray" stroke-width="2"/><text x="395.0" y="149.0" text-anchor="middle" fill="black" font-size="10" font-weight="600">Weaviate</text><line x1="440.0" y1="115.0" x2="440.0" y2="95.0" stroke="gray" stroke-width="2"/><text x="440.0" y="89.0" text-anchor="middle" fill="black" font-size="10" font-weight="600">FAISS</text><circle cx="350.0" cy="185.0" r="45" fill="white" stroke="#2563EB" stroke-width="3" class="fi" style="animation-delay:0.30s"/><text x="350.0" y="175.0" text-anchor="middle" fill="#163B8D" font-size="11" font-weight="800">Retrieval</text><text x="350.0" y="190.0" text-anchor="middle" fill="#163B8D" font-size="11" font-weight="800">&amp;</text><text x="350.0" y="205.0" text-anchor="middle" fill="#163B8D" font-size="11" font-weight="800">Ranking</text><path d="M 500.0 405.0 L 650.0 185.0" stroke="#0891B2" stroke-width="3" fill="none" class="flow" style="animation-delay:0.20s"/><circle cx="500.0" cy="405.0" r="6" fill="#0891B2"/><path d="M 650.0 145.0 L 650.0 115.0 L 550.0 115.0 L 750.0 115.0" stroke="gray" stroke-width="2" fill="none"/><line x1="560.0" y1="115.0" x2="560.0" y2="95.0" stroke="gray" stroke-width="2"/><text x="560.0" y="89.0" text-anchor="middle" fill="black" font-size="10" font-weight="600">LlamaIndex</text><line x1="605.0" y1="115.0" x2="605.0" y2="135.0" stroke="gray" stroke-width="2"/><text x="605.0" y="149.0" text-anchor="middle" fill="black" font-size="10" font-weight="600">LangChain</text><line x1="650.0" y1="115.0" x2="650.0" y2="95.0" stroke="gray" stroke-width="2"/><text x="650.0" y="89.0" text-anchor="middle" fill="black" font-size="10" font-weight="600">Huggingface</text><line x1="695.0" y1="115.0" x2="695.0" y2="135.0" stroke="gray" stroke-width="2"/><text x="695.0" y="149.0" text-anchor="middle" fill="black" font-size="10" font-weight="600">Haystack</text><line x1="740.0" y1="115.0" x2="740.0" y2="95.0" stroke="gray" stroke-width="2"/><text x="740.0" y="89.0" text-anchor="middle" fill="black" font-size="10" font-weight="600">CrewAI</text><circle cx="650.0" cy="185.0" r="45" fill="white" stroke="#0891B2" stroke-width="3" class="fi" style="animation-delay:0.40s"/><text x="650.0" y="180.0" text-anchor="middle" fill="#04576A" font-size="11" font-weight="800">LLM</text><text x="650.0" y="195.0" text-anchor="middle" fill="#04576A" font-size="11" font-weight="800">Frameworks</text><path d="M 500.0 405.0 L 780.0 285.0" stroke="#059669" stroke-width="3" fill="none" class="flow" style="animation-delay:0.30s"/><circle cx="500.0" cy="405.0" r="6" fill="#059669"/><path d="M 830.0 285.0 L 860.0 285.0 L 860.0 525.0" stroke="gray" stroke-width="2" fill="none"/><line x1="860.0" y1="315.0" x2="880.0" y2="315.0" stroke="gray" stroke-width="2"/><text x="890.0" y="319.0" text-anchor="start" fill="black" font-size="11" font-weight="600">HuggingFace</text><line x1="860.0" y1="355.0" x2="880.0" y2="355.0" stroke="gray" stroke-width="2"/><text x="890.0" y="359.0" text-anchor="start" fill="black" font-size="11" font-weight="600">LLMWare</text><line x1="860.0" y1="395.0" x2="880.0" y2="395.0" stroke="gray" stroke-width="2"/><text x="890.0" y="399.0" text-anchor="start" fill="black" font-size="11" font-weight="600">Sentence Transformers</text><line x1="860.0" y1="435.0" x2="880.0" y2="435.0" stroke="gray" stroke-width="2"/><text x="890.0" y="439.0" text-anchor="start" fill="black" font-size="11" font-weight="600">JinaAI</text><line x1="860.0" y1="475.0" x2="880.0" y2="475.0" stroke="gray" stroke-width="2"/><text x="890.0" y="479.0" text-anchor="start" fill="black" font-size="11" font-weight="600">Cognita</text><line x1="860.0" y1="515.0" x2="880.0" y2="515.0" stroke="gray" stroke-width="2"/><text x="890.0" y="519.0" text-anchor="start" fill="black" font-size="11" font-weight="600">Nomic</text><circle cx="780.0" cy="285.0" r="45" fill="white" stroke="#059669" stroke-width="3" class="fi" style="animation-delay:0.50s"/><text x="780.0" y="280.0" text-anchor="middle" fill="#035A3F" font-size="11" font-weight="800">Embedding</text><text x="780.0" y="295.0" text-anchor="middle" fill="#035A3F" font-size="11" font-weight="800">Model</text><path d="M 500.0 405.0 L 750.0 585.0" stroke="#DB2777" stroke-width="3" fill="none" class="flow" style="animation-delay:0.40s"/><circle cx="500.0" cy="405.0" r="6" fill="#DB2777"/><path d="M 800.0 585.0 L 830.0 585.0 L 830.0 785.0" stroke="gray" stroke-width="2" fill="none"/><line x1="830.0" y1="615.0" x2="850.0" y2="615.0" stroke="gray" stroke-width="2"/><text x="860.0" y="619.0" text-anchor="start" fill="black" font-size="11" font-weight="600">Milvus</text><line x1="830.0" y1="655.0" x2="850.0" y2="655.0" stroke="gray" stroke-width="2"/><text x="860.0" y="659.0" text-anchor="start" fill="black" font-size="11" font-weight="600">Weaviate</text><line x1="830.0" y1="695.0" x2="850.0" y2="695.0" stroke="gray" stroke-width="2"/><text x="860.0" y="699.0" text-anchor="start" fill="black" font-size="11" font-weight="600">PgVector</text><line x1="830.0" y1="735.0" x2="850.0" y2="735.0" stroke="gray" stroke-width="2"/><text x="860.0" y="739.0" text-anchor="start" fill="black" font-size="11" font-weight="600">Chroma</text><line x1="830.0" y1="775.0" x2="850.0" y2="775.0" stroke="gray" stroke-width="2"/><text x="860.0" y="779.0" text-anchor="start" fill="black" font-size="11" font-weight="600">Qdrant</text><circle cx="750.0" cy="585.0" r="45" fill="white" stroke="#DB2777" stroke-width="3" class="fi" style="animation-delay:0.60s"/><text x="750.0" y="580.0" text-anchor="middle" fill="#831747" font-size="11" font-weight="800">Vector</text><text x="750.0" y="595.0" text-anchor="middle" fill="#831747" font-size="11" font-weight="800">Database</text><path d="M 500.0 405.0 L 500.0 585.0" stroke="#7C3AED" stroke-width="3" fill="none" class="flow" style="animation-delay:0.50s"/><circle cx="500.0" cy="405.0" r="6" fill="#7C3AED"/><path d="M 500.0 625.0 L 500.0 665.0 M 440.0 665.0 L 560.0 665.0 L 560.0 745.0 M 440.0 665.0 L 440.0 745.0" stroke="gray" stroke-width="2" fill="none"/><line x1="440.0" y1="685.0" x2="420.0" y2="685.0" stroke="gray" stroke-width="2"/><text x="410.0" y="689.0" text-anchor="end" fill="black" font-size="11" font-weight="600">Phi-2</text><line x1="440.0" y1="720.0" x2="420.0" y2="720.0" stroke="gray" stroke-width="2"/><text x="410.0" y="724.0" text-anchor="end" fill="black" font-size="11" font-weight="600">Deepseek</text><line x1="440.0" y1="755.0" x2="420.0" y2="755.0" stroke="gray" stroke-width="2"/><text x="410.0" y="759.0" text-anchor="end" fill="black" font-size="11" font-weight="600">Qwen</text><line x1="560.0" y1="685.0" x2="580.0" y2="685.0" stroke="gray" stroke-width="2"/><text x="590.0" y="689.0" text-anchor="start" fill="black" font-size="11" font-weight="600">LLaMa</text><line x1="560.0" y1="720.0" x2="580.0" y2="720.0" stroke="gray" stroke-width="2"/><text x="590.0" y="724.0" text-anchor="start" fill="black" font-size="11" font-weight="600">Mistral</text><line x1="560.0" y1="755.0" x2="580.0" y2="755.0" stroke="gray" stroke-width="2"/><text x="590.0" y="759.0" text-anchor="start" fill="black" font-size="11" font-weight="600">Gemma</text><circle cx="500.0" cy="585.0" r="45" fill="white" stroke="#7C3AED" stroke-width="3" class="fi" style="animation-delay:0.70s"/><text x="500.0" y="590.0" text-anchor="middle" fill="#4A228E" font-size="12" font-weight="800">LLM</text><path d="M 500.0 405.0 L 250.0 585.0" stroke="#D97706" stroke-width="3" fill="none" class="flow" style="animation-delay:0.60s"/><circle cx="500.0" cy="405.0" r="6" fill="#D97706"/><path d="M 200.0 585.0 L 170.0 585.0 L 170.0 745.0" stroke="gray" stroke-width="2" fill="none"/><line x1="170.0" y1="615.0" x2="150.0" y2="615.0" stroke="gray" stroke-width="2"/><text x="140.0" y="619.0" text-anchor="end" fill="black" font-size="11" font-weight="600">NextJS</text><line x1="170.0" y1="655.0" x2="150.0" y2="655.0" stroke="gray" stroke-width="2"/><text x="140.0" y="659.0" text-anchor="end" fill="black" font-size="11" font-weight="600">SvelteKit</text><line x1="170.0" y1="695.0" x2="150.0" y2="695.0" stroke="gray" stroke-width="2"/><text x="140.0" y="699.0" text-anchor="end" fill="black" font-size="11" font-weight="600">Streamlit</text><line x1="170.0" y1="735.0" x2="150.0" y2="735.0" stroke="gray" stroke-width="2"/><text x="140.0" y="739.0" text-anchor="end" fill="black" font-size="11" font-weight="600">VueJS</text><circle cx="250.0" cy="585.0" r="45" fill="white" stroke="#D97706" stroke-width="3" class="fi" style="animation-delay:0.80s"/><text x="250.0" y="580.0" text-anchor="middle" fill="#824703" font-size="11" font-weight="800">Frontend</text><text x="250.0" y="595.0" text-anchor="middle" fill="#824703" font-size="11" font-weight="800">Frameworks</text>
<rect x="0" y="820" width="1000" height="30" fill="#FDF8F2"/>
<rect x="0" y="819" width="1000" height="1" fill="#E2E8F0"/>
<text x="18" y="839" fill="#94A3B8" font-size="8.5">March 2026 · Komal Batra</text>
<rect x="780" y="826" width="208" height="18" rx="9" fill="rgba(217,119,6,0.12)" stroke="#D97706" stroke-width="1"/>
<text x="884" y="838" text-anchor="middle" fill="#D97706" font-size="9" font-weight="800" letter-spacing="0.8">AI (c) Komal Batra</text>
</svg>