<svg xmlns="http://www.w3.org/2000/svg" viewBox="0 0 680 472" width="680" height="472" style="display:block;font-family:Arial,sans-serif;overflow:hidden"><defs><marker id="nbarrow" viewBox="0 0 10 10" refX="8" refY="5" markerWidth="5" markerHeight="5" orient="auto-start-reverse"><path d="M2 1L8 5L2 9" fill="none" stroke="context-stroke" stroke-width="1.5" stroke-linecap="round" stroke-linejoin="round"/></marker></defs><rect x="0" y="0" width="680" height="472" fill="#FAFAF5"/><line x1="36" y1="60" x2="668" y2="60" stroke="#EBEBDF" stroke-width="0.5"/><line x1="36" y1="88" x2="668" y2="88" stroke="#EBEBDF" stroke-width="0.5"/><line x1="36" y1="116" x2="668" y2="116" stroke="#EBEBDF" stroke-width="0.5"/><line x1="36" y1="144" x2="668" y2="144" stroke="#EBEBDF" stroke-width="0.5"/><line x1="36" y1="172" x2="668" y2="172" stroke="#EBEBDF" stroke-width="0.5"/><line x1="36" y1="200" x2="668" y2="200" stroke="#EBEBDF" stroke-width="0.5"/><line x1="36" y1="228" x2="668" y2="228" stroke="#EBEBDF" stroke-width="0.5"/><line x1="36" y1="256" x2="668" y2="256" stroke="#EBEBDF" stroke-width="0.5"/><line x1="36" y1="284" x2="668" y2="284" stroke="#EBEBDF" stroke-width="0.5"/><line x1="36" y1="312" x2="668" y2="312" stroke="#EBEBDF" stroke-width="0.5"/><line x1="36" y1="340" x2="668" y2="340" stroke="#EBEBDF" stroke-width="0.5"/><line x1="36" y1="368" x2="668" y2="368" stroke="#EBEBDF" stroke-width="0.5"/><line x1="36" y1="396" x2="668" y2="396" stroke="#EBEBDF" stroke-width="0.5"/><line x1="36" y1="424" x2="668" y2="424" stroke="#EBEBDF" stroke-width="0.5"/><line x1="36" y1="452" x2="668" y2="452" stroke="#EBEBDF" stroke-width="0.5"/><line x1="30" y1="0" x2="30" y2="472" stroke="#E2E2D8" stroke-width="1"/><circle cx="16" cy="28" r="4.5" fill="none" stroke="#C4C4B8" stroke-width="1.2"/><circle cx="16" cy="56" r="4.5" fill="none" stroke="#C4C4B8" stroke-width="1.2"/><circle cx="16" cy="84" r="4.5" fill="none" stroke="#C4C4B8" stroke-width="1.2"/><circle cx="16" cy="112" r="4.5" fill="none" stroke="#C4C4B8" stroke-width="1.2"/><circle cx="16" cy="140" r="4.5" fill="none" stroke="#C4C4B8" stroke-width="1.2"/><circle cx="16" cy="168" r="4.5" fill="none" stroke="#C4C4B8" stroke-width="1.2"/><circle cx="16" cy="196" r="4.5" fill="none" stroke="#C4C4B8" stroke-width="1.2"/><circle cx="16" cy="224" r="4.5" fill="none" stroke="#C4C4B8" stroke-width="1.2"/><circle cx="16" cy="252" r="4.5" fill="none" stroke="#C4C4B8" stroke-width="1.2"/><circle cx="16" cy="280" r="4.5" fill="none" stroke="#C4C4B8" stroke-width="1.2"/><circle cx="16" cy="308" r="4.5" fill="none" stroke="#C4C4B8" stroke-width="1.2"/><circle cx="16" cy="336" r="4.5" fill="none" stroke="#C4C4B8" stroke-width="1.2"/><circle cx="16" cy="364" r="4.5" fill="none" stroke="#C4C4B8" stroke-width="1.2"/><circle cx="16" cy="392" r="4.5" fill="none" stroke="#C4C4B8" stroke-width="1.2"/><circle cx="16" cy="420" r="4.5" fill="none" stroke="#C4C4B8" stroke-width="1.2"/><circle cx="16" cy="448" r="4.5" fill="none" stroke="#C4C4B8" stroke-width="1.2"/><text x="340" y="32" text-anchor="middle" font-family="Georgia,serif" font-size="17" font-weight="700" fill="#1A1A1A" letter-spacing="1.5">KUBERNETES ARCHITECTURE</text><line x1="60" y1="42" x2="620" y2="42" stroke="#1A1A1A" stroke-width="0.8"/><text x="340" y="56" text-anchor="middle" font-family="Arial,sans-serif" font-size="10" fill="#888" font-style="italic">Kubernetes cluster architecture</text><text x="42" y="82" font-family="Georgia,serif" font-size="10" fill="#999" font-style="italic">Control Plane</text><rect x="42" y="84" width="130" height="28" rx="4" fill="#E0F2E9" stroke="#0F6E56" stroke-width="0.8"/><text x="107" y="102" text-anchor="middle" font-family="Arial,sans-serif" font-size="10" font-weight="600" fill="#085041">API Server</text><rect x="194" y="84" width="130" height="28" rx="4" fill="#E0F2E9" stroke="#0F6E56" stroke-width="0.8"/><text x="259" y="102" text-anchor="middle" font-family="Arial,sans-serif" font-size="10" font-weight="600" fill="#085041">etcd</text><rect x="346" y="84" width="130" height="28" rx="4" fill="#E0F2E9" stroke="#0F6E56" stroke-width="0.8"/><text x="411" y="102" text-anchor="middle" font-family="Arial,sans-serif" font-size="10" font-weight="600" fill="#085041">Scheduler</text><rect x="498" y="84" width="130" height="28" rx="4" fill="#E0F2E9" stroke="#0F6E56" stroke-width="0.8"/><text x="563" y="102" text-anchor="middle" font-family="Arial,sans-serif" font-size="10" font-weight="600" fill="#085041">Controller Mgr</text><line x1="336" y1="112" x2="336" y2="124" stroke="#AAAAAA" stroke-width="1.2" marker-end="url(#nbarrow)"/><text x="42" y="148" font-family="Georgia,serif" font-size="10" fill="#999" font-style="italic">Worker Nodes</text><rect x="42" y="150" width="588" height="32" rx="4" fill="#D0EAFE" stroke="#185FA5" stroke-width="1.1"/><text x="336" y="170" text-anchor="middle" font-family="Arial,sans-serif" font-size="11" font-weight="700" fill="#0C447C">Kubelet · kube-proxy · containerd · CNI plugin</text><line x1="336" y1="182" x2="336" y2="194" stroke="#AAAAAA" stroke-width="1.2" marker-end="url(#nbarrow)"/><text x="42" y="218" font-family="Georgia,serif" font-size="10" fill="#999" font-style="italic">Workloads</text><rect x="42" y="220" width="186" height="92" rx="4" fill="#FAFAF0" stroke="#C4C4B8" stroke-width="0.8"/><text x="52" y="236" font-family="Arial,sans-serif" font-size="11" font-weight="700" fill="#2C2C2A">□ Compute</text><text x="54" y="252" font-family="Arial,sans-serif" font-size="9.5" fill="#5F5E5A">• Deployment</text><text x="54" y="268" font-family="Arial,sans-serif" font-size="9.5" fill="#5F5E5A">• StatefulSet</text><text x="54" y="284" font-family="Arial,sans-serif" font-size="9.5" fill="#5F5E5A">• DaemonSet</text><text x="54" y="300" font-family="Arial,sans-serif" font-size="9.5" fill="#5F5E5A">• CronJob</text><rect x="242" y="220" width="186" height="92" rx="4" fill="#FAFAF0" stroke="#C4C4B8" stroke-width="0.8"/><text x="252" y="236" font-family="Arial,sans-serif" font-size="11" font-weight="700" fill="#2C2C2A">⇄ Networking</text><text x="254" y="252" font-family="Arial,sans-serif" font-size="9.5" fill="#5F5E5A">• Service</text><text x="254" y="268" font-family="Arial,sans-serif" font-size="9.5" fill="#5F5E5A">• Ingress</text><text x="254" y="284" font-family="Arial,sans-serif" font-size="9.5" fill="#5F5E5A">• NetworkPolicy</text><text x="254" y="300" font-family="Arial,sans-serif" font-size="9.5" fill="#5F5E5A">• Istio</text><rect x="442" y="220" width="186" height="92" rx="4" fill="#FAFAF0" stroke="#C4C4B8" stroke-width="0.8"/><text x="452" y="236" font-family="Arial,sans-serif" font-size="11" font-weight="700" fill="#2C2C2A">🗄 Storage</text><text x="454" y="252" font-family="Arial,sans-serif" font-size="9.5" fill="#5F5E5A">• PersistentVol</text><text x="454" y="268" font-family="Arial,sans-serif" font-size="9.5" fill="#5F5E5A">• StorageClass</text><text x="454" y="284" font-family="Arial,sans-serif" font-size="9.5" fill="#5F5E5A">• ConfigMap</text><text x="454" y="300" font-family="Arial,sans-serif" font-size="9.5" fill="#5F5E5A">• Secret</text><line x1="336" y1="312" x2="336" y2="324" stroke="#AAAAAA" stroke-width="1.2" marker-end="url(#nbarrow)"/><text x="42" y="348" font-family="Georgia,serif" font-size="10" fill="#999" font-style="italic">Observability</text><rect x="42" y="350" width="588" height="54" rx="4" fill="#F3EBF9" stroke="#7F77DD" stroke-width="1"/><text x="54" y="364" font-family="Arial,sans-serif" font-size="10" font-weight="700" fill="#3C3489">Prometheus · Grafana · Loki · OpenTelemetry</text><text x="54" y="380" font-family="Arial,sans-serif" font-size="9.5" font-weight="400" fill="#5F5E5A">HPA autoscaling, RBAC policies, Helm chart releases</text><line x1="42" y1="452" x2="638" y2="452" stroke="#D3D1C7" stroke-width="0.6"/><text x="638" y="465" text-anchor="end" font-family="Georgia,serif" font-size="11" fill="#888" font-style="italic">AI (c) Komal Batra</text></svg>